<svg width="20" height="20" viewBox="0 0 20 20" fill="none" xmlns="http://www.w3.org/2000/svg">
<path d="M0.5 3.7C0.5 2.57989 0.5 2.01984 0.717987 1.59202C0.909734 1.21569 1.21569 0.909734 1.59202 0.717987C2.01984 0.5 2.5799 0.5 3.7 0.5H16.3C17.4201 0.5 17.9802 0.5 18.408 0.717987C18.7843 0.909734 19.0903 1.21569 19.282 1.59202C19.5 2.01984 19.5 2.5799 19.5 3.7V16.3C19.5 17.4201 19.5 17.9802 19.282 18.408C19.0903 18.7843 18.7843 19.0903 18.408 19.282C17.9802 19.5 17.4201 19.5 16.3 19.5H3.7C2.57989 19.5 2.01984 19.5 1.59202 19.282C1.21569 19.0903 0.909734 18.7843 0.717987 18.408C0.5 17.9802 0.5 17.4201 0.5 16.3V3.7Z" stroke="#222222" stroke-linecap="round"/>
<path d="M16.5 19.5L10.5 4.5" stroke="#222222"/>
<path d="M19.5 2.5L0.5 6.5" stroke="#222222"/>
</svg>
