<svg width="22" height="20" viewBox="0 0 22 20" fill="none" xmlns="http://www.w3.org/2000/svg">
<path d="M1 10L0.609566 9.68765L0.359688 10L0.609566 10.3123L1 10ZM10 10.5C10.2761 10.5 10.5 10.2761 10.5 10C10.5 9.72386 10.2761 9.5 10 9.5V10.5ZM4.60957 4.68765L0.609566 9.68765L1.39043 10.3123L5.39043 5.31235L4.60957 4.68765ZM0.609566 10.3123L4.60957 15.3123L5.39043 14.6877L1.39043 9.68765L0.609566 10.3123ZM1 10.5H10V9.5H1V10.5Z" fill="#222222"/>
<path d="M9 6.13193V5.38851C9 3.77017 9 2.961 9.47396 2.4015C9.94792 1.84201 10.7461 1.70899 12.3424 1.44293L14.0136 1.1644C17.2567 0.623883 18.8782 0.353625 19.9391 1.25232C21 2.15102 21 3.79493 21 7.08276V12.9172C21 16.2051 21 17.849 19.9391 18.7477C18.8782 19.6464 17.2567 19.3761 14.0136 18.8356L12.3424 18.5571C10.7461 18.291 9.94792 18.158 9.47396 17.5985C9 17.039 9 16.2298 9 14.6115V14.066" stroke="#222222"/>
</svg>
