<svg width="18" height="19" viewBox="0 0 18 19" fill="none" xmlns="http://www.w3.org/2000/svg">
<path d="M16.3259 2.77772L15.9101 3.0555L15.9101 3.0555L16.3259 2.77772ZM16.3259 13.2223L15.9101 12.9445H15.9101L16.3259 13.2223ZM15.2223 14.3259L14.9445 13.9101V13.9101L15.2223 14.3259ZM11 14.9986L10.9978 14.4986C10.7225 14.4998 10.5 14.7233 10.5 14.9986H11ZM11 15L11.4472 15.2236C11.4819 15.1542 11.5 15.0776 11.5 15H11ZM7 15H6.5C6.5 15.0776 6.51807 15.1542 6.55279 15.2236L7 15ZM7 14.9986H7.5C7.5 14.7233 7.27747 14.4998 7.00218 14.4986L7 14.9986ZM2.77772 14.3259L3.0555 13.9101L3.0555 13.9101L2.77772 14.3259ZM1.67412 13.2223L2.08986 12.9445H2.08986L1.67412 13.2223ZM1.67412 2.77772L2.08986 3.0555L1.67412 2.77772ZM2.77772 1.67412L3.0555 2.08986L2.77772 1.67412ZM15.2223 1.67412L14.9445 2.08986V2.08986L15.2223 1.67412ZM17.5 8C17.5 6.60594 17.5006 5.52277 17.4132 4.66325C17.3249 3.79537 17.1427 3.10023 16.7416 2.49993L15.9101 3.0555C16.1832 3.4641 16.3381 3.97564 16.4183 4.76445C16.4994 5.56162 16.5 6.58513 16.5 8H17.5ZM16.7416 13.5001C17.1427 12.8998 17.3249 12.2046 17.4132 11.3368C17.5006 10.4772 17.5 9.39406 17.5 8H16.5C16.5 9.41487 16.4994 10.4384 16.4183 11.2355C16.3381 12.0244 16.1832 12.5359 15.9101 12.9445L16.7416 13.5001ZM15.5001 14.7416C15.9914 14.4133 16.4133 13.9914 16.7416 13.5001L15.9101 12.9445C15.6548 13.3267 15.3267 13.6548 14.9445 13.9101L15.5001 14.7416ZM11.0022 15.4986C12.0787 15.4939 12.9452 15.4734 13.6582 15.3749C14.3793 15.2752 14.9757 15.092 15.5001 14.7416L14.9445 13.9101C14.5875 14.1487 14.1516 14.2971 13.5213 14.3843C12.883 14.4725 12.079 14.4939 10.9978 14.4986L11.0022 15.4986ZM11.5 15V14.9986H10.5V15H11.5ZM10.3416 17.4348L11.4472 15.2236L10.5528 14.7764L9.44721 16.9875L10.3416 17.4348ZM7.65836 17.4348C8.21115 18.5403 9.78885 18.5403 10.3416 17.4348L9.44721 16.9875C9.26295 17.3561 8.73705 17.3561 8.55279 16.9875L7.65836 17.4348ZM6.55279 15.2236L7.65836 17.4348L8.55279 16.9875L7.44721 14.7764L6.55279 15.2236ZM6.5 14.9986V15H7.5V14.9986H6.5ZM2.49993 14.7416C3.02427 15.092 3.62069 15.2752 4.34176 15.3749C5.0548 15.4734 5.92135 15.4939 6.99782 15.4986L7.00218 14.4986C5.92095 14.4939 5.11704 14.4725 4.47869 14.3843C3.84838 14.2971 3.41252 14.1487 3.0555 13.9101L2.49993 14.7416ZM1.25839 13.5001C1.5867 13.9914 2.00858 14.4133 2.49993 14.7416L3.0555 13.9101C2.67334 13.6548 2.34521 13.3267 2.08986 12.9445L1.25839 13.5001ZM0.5 8C0.5 9.39406 0.499396 10.4772 0.586832 11.3368C0.675119 12.2046 0.857282 12.8998 1.25839 13.5001L2.08986 12.9445C1.81684 12.5359 1.66194 12.0244 1.5817 11.2355C1.5006 10.4384 1.5 9.41487 1.5 8H0.5ZM1.25839 2.49993C0.857282 3.10023 0.675119 3.79537 0.586832 4.66325C0.499396 5.52277 0.5 6.60594 0.5 8H1.5C1.5 6.58513 1.5006 5.56162 1.5817 4.76445C1.66194 3.97564 1.81684 3.4641 2.08986 3.0555L1.25839 2.49993ZM2.49993 1.25839C2.00858 1.5867 1.5867 2.00858 1.25839 2.49993L2.08986 3.0555C2.34521 2.67334 2.67334 2.34521 3.0555 2.08986L2.49993 1.25839ZM8 0.5C6.60594 0.5 5.52277 0.499396 4.66325 0.586832C3.79537 0.675119 3.10023 0.857282 2.49993 1.25839L3.0555 2.08986C3.4641 1.81684 3.97564 1.66194 4.76445 1.5817C5.56162 1.5006 6.58513 1.5 8 1.5V0.5ZM10 0.5H8V1.5H10V0.5ZM15.5001 1.25839C14.8998 0.857282 14.2046 0.675119 13.3368 0.586832C12.4772 0.499396 11.3941 0.5 10 0.5V1.5C11.4149 1.5 12.4384 1.5006 13.2355 1.5817C14.0244 1.66194 14.5359 1.81684 14.9445 2.08986L15.5001 1.25839ZM16.7416 2.49993C16.4133 2.00858 15.9914 1.5867 15.5001 1.25839L14.9445 2.08986C15.3267 2.34521 15.6548 2.67334 15.9101 3.0555L16.7416 2.49993Z" fill="#222222"/>
<circle cx="13" cy="8" r="1" fill="#222222"/>
<circle cx="9" cy="8" r="1" fill="#222222"/>
<circle cx="5" cy="8" r="1" fill="#222222"/>
</svg>
