<svg width="22" height="22" viewBox="0 0 22 22" fill="none" xmlns="http://www.w3.org/2000/svg">
<path d="M13.1361 2.36144L13.6337 2.31169L13.1361 2.36144ZM12.9838 1.54161L12.5394 1.7708V1.77081L12.9838 1.54161ZM13.4311 3.81793L13.8286 3.51467V3.51467L13.4311 3.81793ZM14.3595 4.20248L14.2928 3.70694L14.2928 3.70694L14.3595 4.20248ZM15.5979 3.38113L15.9145 3.76811V3.76811L15.5979 3.38113ZM16.2853 2.90918L16.4375 3.38547L16.2853 2.90918ZM16.9872 2.94419L17.186 2.48541V2.48541L16.9872 2.94419ZM17.6243 3.4822L17.2707 3.83575V3.83575L17.6243 3.4822ZM18.5178 4.37567L18.8713 4.02211V4.02211L18.5178 4.37567ZM19.0558 5.01275L19.5146 4.81396L19.5146 4.81396L19.0558 5.01275ZM19.0908 5.71464L19.5671 5.8668L19.5671 5.86679L19.0908 5.71464ZM18.6188 6.4021L18.2318 6.08548V6.08548L18.6188 6.4021ZM17.7975 7.64056L17.3019 7.5739V7.5739L17.7975 7.64056ZM18.182 8.56893L17.8787 8.96645L18.182 8.56893ZM19.6385 8.86385L19.6883 8.36633L19.6385 8.86385ZM20.4584 9.01624L20.6876 8.57187L20.6876 8.57187L20.4584 9.01624ZM20.9299 9.53729L21.3949 9.35345V9.35344L20.9299 9.53729ZM20.93 12.4626L20.465 12.2788L20.465 12.2788L20.93 12.4626ZM20.4583 12.9838L20.6875 13.4282H20.6875L20.4583 12.9838ZM19.6386 13.1361L19.5889 12.6386L19.5726 12.6402L19.5564 12.6429L19.6386 13.1361ZM19.6386 13.1361L19.6884 13.6337L19.7047 13.632L19.7208 13.6293L19.6386 13.1361ZM18.1825 13.4309L17.8794 13.0333L18.1825 13.4309ZM17.7979 14.3596L17.3023 14.4264V14.4264L17.7979 14.3596ZM18.619 15.5976L18.232 15.9142L18.619 15.5976ZM19.0908 16.2848L18.6145 16.437L18.6145 16.437L19.0908 16.2848ZM19.0558 16.9869L18.597 16.7881L18.597 16.7881L19.0558 16.9869ZM18.5179 17.6238L18.8715 17.9773L18.5179 17.6238ZM17.6243 18.5174L17.2708 18.1638V18.1638L17.6243 18.5174ZM16.9873 19.0554L17.1861 19.5141L17.1861 19.5141L16.9873 19.0554ZM16.2854 19.0904L16.1332 19.5667H16.1332L16.2854 19.0904ZM15.5979 18.6184L15.9146 18.2314L15.9103 18.228L15.5979 18.6184ZM15.5979 18.6184L15.2813 19.0054L15.2856 19.0088L15.5979 18.6184ZM14.3595 17.7971L14.4262 17.3015H14.4262L14.3595 17.7971ZM13.4311 18.1816L13.8286 18.4849L13.8286 18.4849L13.4311 18.1816ZM13.1362 19.6383L12.6386 19.5886L13.1362 19.6383ZM12.9837 20.4585L12.5394 20.2292L12.5394 20.2292L12.9837 20.4585ZM12.4628 20.9299L12.2789 20.465H12.2789L12.4628 20.9299ZM9.53729 20.9299L9.72114 20.465H9.72114L9.53729 20.9299ZM9.01624 20.4584L9.46062 20.2292L9.01624 20.4584ZM8.86385 19.6385L8.36634 19.6883L8.86385 19.6385ZM8.56892 18.182L8.17139 18.4853L8.17139 18.4853L8.56892 18.182ZM7.64057 17.7975L7.57392 17.3019H7.57392L7.64057 17.7975ZM6.40208 18.6189L6.08546 18.2319L6.07754 18.2384L6.06989 18.2452L6.40208 18.6189ZM6.40206 18.6189L6.71868 19.0058L6.7266 18.9994L6.73424 18.9926L6.40206 18.6189ZM5.71458 19.0908L5.86673 19.5671H5.86673L5.71458 19.0908ZM5.01272 19.0558L4.81394 19.5146H4.81394L5.01272 19.0558ZM4.37561 18.5178L4.72916 18.1642H4.72916L4.37561 18.5178ZM3.48217 17.6243L3.12861 17.9779H3.12861L3.48217 17.6243ZM2.94414 16.9873L3.40292 16.7885L2.94414 16.9873ZM2.90913 16.2854L3.38542 16.4375L2.90913 16.2854ZM3.3811 15.5979L3.76808 15.9145L3.3811 15.5979ZM4.20247 14.3594L4.69801 14.4261L4.20247 14.3594ZM3.81792 13.4311L4.12119 13.0335H4.12119L3.81792 13.4311ZM2.36143 13.1361L2.31168 13.6337H2.31168L2.36143 13.1361ZM1.54161 12.9838L1.77081 12.5394H1.77081L1.54161 12.9838ZM1.07005 12.4627L0.605071 12.6465H0.605071L1.07005 12.4627ZM1.07008 9.53721L0.605126 9.35333L0.605126 9.35333L1.07008 9.53721ZM1.54152 9.01628L1.31229 8.57193L1.31228 8.57193L1.54152 9.01628ZM2.36155 8.86384V8.36384H2.33661L2.3118 8.36633L2.36155 8.86384ZM2.36156 8.86384V9.36384H2.3865L2.41131 9.36136L2.36156 8.86384ZM3.81842 8.56881L3.5151 8.17132L3.51509 8.17132L3.81842 8.56881ZM4.20287 7.64066L4.69841 7.57408H4.69841L4.20287 7.64066ZM3.38128 6.40182L3.76826 6.0852L3.38128 6.40182ZM2.90914 5.71405L3.38545 5.56197H3.38544L2.90914 5.71405ZM2.94413 5.01243L2.48532 4.81371L2.48532 4.81371L2.94413 5.01243ZM3.48233 4.37509L3.83589 4.72864L3.83589 4.72864L3.48233 4.37509ZM4.37565 3.48177L4.0221 3.12822H4.0221L4.37565 3.48177ZM5.01277 2.94373L4.81398 2.48494H4.81398L5.01277 2.94373ZM5.71463 2.90872L5.86677 2.43243L5.71463 2.90872ZM6.4022 3.38076L6.71882 2.99378V2.99378L6.4022 3.38076ZM7.64044 4.20207L7.70718 3.70654L7.64044 4.20207ZM8.56907 3.81742L8.17149 3.51422L8.56907 3.81742ZM8.86387 2.36131L9.36139 2.41106V2.41106L8.86387 2.36131ZM9.01619 1.5417L8.57179 1.31255L8.57179 1.31256L9.01619 1.5417ZM9.53741 1.07001L9.7212 1.535L9.7212 1.535L9.53741 1.07001ZM12.4627 1.07005L12.6465 0.605072L12.6465 0.605072L12.4627 1.07005ZM13.6337 2.31169C13.6126 2.10146 13.5947 1.91945 13.5695 1.7696C13.5435 1.61482 13.5051 1.46166 13.4281 1.31242L12.5394 1.77081C12.5497 1.79088 12.5658 1.8308 12.5833 1.93519C12.6017 2.04449 12.6163 2.18775 12.6386 2.41119L13.6337 2.31169ZM13.8286 3.51467C13.8173 3.49983 13.7806 3.43872 13.7421 3.22451C13.7044 3.01507 13.6755 2.73051 13.6337 2.31169L12.6386 2.41119C12.6788 2.81323 12.7116 3.14432 12.7579 3.40161C12.8033 3.65413 12.8731 3.91083 13.0335 4.12119L13.8286 3.51467ZM14.2928 3.70694C14.1148 3.73089 13.9375 3.65749 13.8286 3.51467L13.0335 4.12118C13.3604 4.54967 13.892 4.76987 14.4261 4.69801L14.2928 3.70694ZM15.2813 2.99415C14.9555 3.26069 14.7339 3.44152 14.5592 3.56296C14.3804 3.68717 14.3113 3.70445 14.2928 3.70694L14.4261 4.69801C14.6883 4.66274 14.9192 4.53055 15.1298 4.38412C15.3445 4.23493 15.6018 4.02396 15.9145 3.76811L15.2813 2.99415ZM16.1332 2.4329C15.9732 2.484 15.8377 2.56512 15.7099 2.65619C15.5861 2.74436 15.4448 2.86037 15.2813 2.99415L15.9145 3.76811C16.0883 3.62591 16.1999 3.53493 16.2902 3.47062C16.3764 3.4092 16.416 3.39234 16.4375 3.38547L16.1332 2.4329ZM17.186 2.48541C16.853 2.3411 16.4789 2.32244 16.1332 2.4329L16.4375 3.38547C16.5527 3.34865 16.6774 3.35487 16.7884 3.40297L17.186 2.48541ZM17.9778 3.12865C17.8285 2.97925 17.6993 2.84975 17.5849 2.74971C17.4668 2.64638 17.3401 2.55217 17.186 2.48541L16.7884 3.40297C16.8092 3.41195 16.8469 3.43267 16.9265 3.50236C17.01 3.57534 17.112 3.67697 17.2707 3.83575L17.9778 3.12865ZM18.8713 4.02211L17.9778 3.12865L17.2707 3.83575L18.1642 4.72922L18.8713 4.02211ZM19.5146 4.81396C19.4478 4.65988 19.3536 4.53314 19.2503 4.41502C19.1502 4.30065 19.0207 4.17151 18.8713 4.02211L18.1642 4.72922C18.323 4.88801 18.4246 4.99001 18.4976 5.07343C18.5673 5.1531 18.588 5.19082 18.597 5.21155L19.5146 4.81396ZM19.5671 5.86679C19.6775 5.52106 19.6589 5.147 19.5146 4.81396L18.597 5.21154C18.6451 5.32255 18.6513 5.44724 18.6145 5.56249L19.5671 5.86679ZM19.0058 6.71872C19.1396 6.5552 19.2556 6.41382 19.3438 6.29006C19.4348 6.16224 19.516 6.02676 19.5671 5.8668L18.6145 5.56249C18.6076 5.58401 18.5908 5.62359 18.5293 5.7098C18.465 5.80008 18.374 5.91168 18.2318 6.08548L19.0058 6.71872ZM18.293 7.70721C18.2955 7.68872 18.3128 7.61958 18.437 7.44084C18.5584 7.2661 18.7393 7.0445 19.0058 6.71872L18.2318 6.08548C17.976 6.3982 17.765 6.65547 17.6158 6.87015C17.4694 7.08084 17.3372 7.31168 17.3019 7.5739L18.293 7.70721ZM18.4853 8.1714C18.3424 8.06244 18.2691 7.88524 18.293 7.70721L17.3019 7.5739C17.2301 8.108 17.4503 8.63959 17.8787 8.96645L18.4853 8.1714ZM19.6883 8.36633C19.2694 8.32445 18.9849 8.29562 18.7754 8.25793C18.5612 8.21938 18.5001 8.18271 18.4853 8.1714L17.8787 8.96645C18.0891 9.12693 18.3458 9.19668 18.5983 9.24212C18.8556 9.28843 19.1867 9.32117 19.5888 9.36137L19.6883 8.36633ZM20.6876 8.57187C20.5384 8.49489 20.3852 8.45645 20.2304 8.43046C20.0805 8.4053 19.8985 8.38736 19.6883 8.36633L19.5888 9.36137C19.8122 9.38372 19.9555 9.3983 20.0648 9.41666C20.1692 9.43419 20.2091 9.45026 20.2292 9.46062L20.6876 8.57187ZM21.3949 9.35344C21.2615 9.01593 21.0102 8.73825 20.6876 8.57187L20.2292 9.46061C20.3367 9.51607 20.4205 9.60863 20.465 9.72114L21.3949 9.35344ZM21.5 10.3682C21.5 10.157 21.5003 9.97407 21.4901 9.82244C21.4797 9.66584 21.4567 9.50961 21.3949 9.35345L20.465 9.72114C20.4733 9.74215 20.4853 9.78346 20.4924 9.88908C20.4997 9.99968 20.5 10.1437 20.5 10.3682H21.5ZM21.5 11.6319V10.3682H20.5V11.6319H21.5ZM21.395 12.6464C21.4567 12.4903 21.4797 12.3341 21.4901 12.1775C21.5003 12.026 21.5 11.8431 21.5 11.6319H20.5C20.5 11.8564 20.4997 12.0003 20.4924 12.1109C20.4853 12.2165 20.4733 12.2578 20.465 12.2788L21.395 12.6464ZM20.6875 13.4282C21.0101 13.2618 21.2615 12.984 21.395 12.6464L20.465 12.2788C20.4205 12.3914 20.3367 12.4839 20.2292 12.5394L20.6875 13.4282ZM19.6884 13.6337C19.8986 13.6126 20.0805 13.5947 20.2304 13.5695C20.3851 13.5436 20.5383 13.5051 20.6875 13.4282L20.2292 12.5394C20.2091 12.5498 20.1692 12.5658 20.0648 12.5833C19.9555 12.6017 19.8123 12.6163 19.5889 12.6386L19.6884 13.6337ZM19.7208 13.6293L19.7208 13.6293L19.5564 12.6429L19.5564 12.6429L19.7208 13.6293ZM18.4857 13.8285C18.5006 13.8172 18.5617 13.7805 18.7758 13.742C18.9852 13.7043 19.2697 13.6755 19.6884 13.6337L19.5889 12.6386C19.1869 12.6788 18.856 12.7115 18.5987 12.7578C18.3463 12.8032 18.0897 12.8729 17.8794 13.0333L18.4857 13.8285ZM18.2934 14.2929C18.2694 14.1148 18.3428 13.9375 18.4857 13.8285L17.8794 13.0333C17.4507 13.3602 17.2304 13.8921 17.3023 14.4264L18.2934 14.2929ZM19.006 15.281C18.7395 14.9553 18.5588 14.7338 18.4373 14.5591C18.3132 14.3805 18.2959 14.3113 18.2934 14.2929L17.3023 14.4264C17.3377 14.6885 17.4698 14.9192 17.6162 15.1298C17.7653 15.3444 17.9762 15.6016 18.232 15.9142L19.006 15.281ZM19.5671 16.1326C19.5159 15.9727 19.4348 15.8372 19.3438 15.7095C19.2557 15.5858 19.1397 15.4444 19.006 15.281L18.232 15.9142C18.3741 16.0879 18.4651 16.1995 18.5294 16.2897C18.5908 16.3759 18.6076 16.4155 18.6145 16.437L19.5671 16.1326ZM19.5145 17.1858C19.6589 16.8526 19.6776 16.4784 19.5671 16.1326L18.6145 16.437C18.6514 16.5523 18.6451 16.677 18.597 16.7881L19.5145 17.1858ZM18.8715 17.9773C19.0208 17.828 19.1503 17.6989 19.2503 17.5846C19.3536 17.4665 19.4478 17.3398 19.5145 17.1858L18.597 16.7881C18.588 16.8088 18.5673 16.8465 18.4976 16.9261C18.4247 17.0095 18.3231 17.1115 18.1644 17.2702L18.8715 17.9773ZM17.9779 18.8709L18.8715 17.9773L18.1644 17.2702L17.2708 18.1638L17.9779 18.8709ZM17.1861 19.5141C17.3401 19.4474 17.4669 19.3532 17.585 19.2498C17.6994 19.1498 17.8285 19.0203 17.9779 18.8709L17.2708 18.1638C17.112 18.3226 17.01 18.4242 16.9266 18.4972C16.8469 18.5669 16.8092 18.5876 16.7885 18.5966L17.1861 19.5141ZM16.1332 19.5667C16.4789 19.6771 16.853 19.6585 17.1861 19.5141L16.7885 18.5966C16.6775 18.6447 16.5528 18.6509 16.4375 18.6141L16.1332 19.5667ZM15.2813 19.0054C15.4448 19.1392 15.5862 19.2552 15.7099 19.3434C15.8378 19.4344 15.9732 19.5156 16.1332 19.5667L16.4375 18.6141C16.416 18.6072 16.3764 18.5904 16.2902 18.5289C16.1999 18.4646 16.0883 18.3736 15.9145 18.2314L15.2813 19.0054ZM15.2856 19.0088L15.2856 19.0089L15.9103 18.228L15.9103 18.228L15.2856 19.0088ZM14.2928 18.2926C14.3113 18.2951 14.3805 18.3124 14.5592 18.4366C14.7339 18.558 14.9555 18.7389 15.2813 19.0054L15.9145 18.2314C15.6018 17.9756 15.3446 17.7646 15.1299 17.6154C14.9192 17.469 14.6884 17.3368 14.4262 17.3015L14.2928 18.2926ZM13.8286 18.4849C13.9376 18.3421 14.1148 18.2687 14.2928 18.2926L14.4262 17.3015C13.892 17.2297 13.3604 17.4499 13.0336 17.8784L13.8286 18.4849ZM13.6337 19.6881C13.6756 19.2692 13.7044 18.9846 13.7421 18.7751C13.7807 18.5608 13.8173 18.4997 13.8286 18.4849L13.0336 17.8784C12.8731 18.0887 12.8033 18.3455 12.7579 18.598C12.7116 18.8553 12.6789 19.1865 12.6386 19.5886L13.6337 19.6881ZM13.4281 20.6877C13.5051 20.5385 13.5435 20.3852 13.5695 20.2304C13.5947 20.0805 13.6127 19.8984 13.6337 19.6881L12.6386 19.5886C12.6163 19.8121 12.6017 19.9554 12.5833 20.0648C12.5658 20.1692 12.5497 20.2092 12.5394 20.2292L13.4281 20.6877ZM12.6467 21.3949C12.9841 21.2614 13.2617 21.0102 13.4281 20.6877L12.5394 20.2292C12.4839 20.3367 12.3914 20.4205 12.2789 20.465L12.6467 21.3949ZM11.6316 21.5C11.843 21.5 12.0259 21.5003 12.1776 21.4901C12.3342 21.4797 12.4905 21.4566 12.6467 21.3949L12.2789 20.465C12.2579 20.4733 12.2166 20.4853 12.1109 20.4924C12.0003 20.4997 11.8563 20.5 11.6316 20.5V21.5ZM10.3682 21.5H11.6316V20.5H10.3682V21.5ZM9.35345 21.3949C9.50961 21.4567 9.66585 21.4797 9.82244 21.4901C9.97407 21.5003 10.157 21.5 10.3682 21.5V20.5C10.1437 20.5 9.99968 20.4997 9.88908 20.4924C9.78347 20.4853 9.74215 20.4733 9.72114 20.465L9.35345 21.3949ZM8.57187 20.6876C8.73824 21.0102 9.01593 21.2615 9.35345 21.3949L9.72114 20.465C9.60863 20.4205 9.51607 20.3367 9.46062 20.2292L8.57187 20.6876ZM8.36634 19.6883C8.38736 19.8985 8.4053 20.0805 8.43046 20.2304C8.45645 20.3852 8.49489 20.5384 8.57187 20.6876L9.46062 20.2292C9.45026 20.2091 9.43419 20.1692 9.41666 20.0648C9.3983 19.9555 9.38372 19.8122 9.36137 19.5888L8.36634 19.6883ZM8.17139 18.4853C8.18271 18.5001 8.21938 18.5612 8.25793 18.7754C8.29562 18.9849 8.32445 19.2695 8.36634 19.6883L9.36137 19.5888C9.32117 19.1867 9.28843 18.8556 9.24212 18.5983C9.19668 18.3458 9.12693 18.0891 8.96644 17.8787L8.17139 18.4853ZM7.70722 18.293C7.88525 18.2691 8.06244 18.3425 8.17139 18.4853L8.96644 17.8787C8.63958 17.4503 8.10801 17.2301 7.57392 17.3019L7.70722 18.293ZM6.71869 19.0058C7.04448 18.7393 7.26609 18.5584 7.44084 18.437C7.61958 18.3128 7.68872 18.2955 7.70722 18.293L7.57392 17.3019C7.3117 17.3372 7.08085 17.4694 6.87015 17.6158C6.65547 17.765 6.39819 17.976 6.08546 18.2319L6.71869 19.0058ZM6.73424 18.9926L6.73426 18.9926L6.06989 18.2452L6.06988 18.2452L6.73424 18.9926ZM5.86673 19.5671C6.0267 19.516 6.16218 19.4349 6.29001 19.3438C6.41377 19.2557 6.55516 19.1396 6.71868 19.0058L6.08544 18.2319C5.91164 18.3741 5.80003 18.4651 5.70976 18.5294C5.62354 18.5908 5.58395 18.6077 5.56244 18.6145L5.86673 19.5671ZM4.81394 19.5146C5.14696 19.6589 5.521 19.6776 5.86673 19.5671L5.56244 18.6145C5.44719 18.6514 5.32251 18.6451 5.21151 18.597L4.81394 19.5146ZM4.02205 18.8713C4.17146 19.0207 4.3006 19.1503 4.41497 19.2503C4.5331 19.3536 4.65985 19.4479 4.81394 19.5146L5.21151 18.597C5.19078 18.5881 5.15306 18.5673 5.07339 18.4977C4.98996 18.4247 4.88796 18.323 4.72916 18.1642L4.02205 18.8713ZM3.12861 17.9779L4.02205 18.8713L4.72916 18.1642L3.83572 17.2708L3.12861 17.9779ZM2.48535 17.186C2.55212 17.3401 2.64632 17.4669 2.74966 17.585C2.84971 17.6994 2.97922 17.8285 3.12861 17.9779L3.83572 17.2708C3.67693 17.112 3.57529 17.01 3.50232 16.9266C3.43262 16.8469 3.4119 16.8092 3.40292 16.7885L2.48535 17.186ZM2.43284 16.1332C2.3224 16.479 2.34106 16.853 2.48535 17.186L3.40292 16.7885C3.35482 16.6775 3.34861 16.5528 3.38542 16.4375L2.43284 16.1332ZM2.99413 15.2813C2.86033 15.4448 2.74432 15.5862 2.65614 15.7099C2.56507 15.8378 2.48395 15.9733 2.43284 16.1332L3.38542 16.4375C3.39229 16.416 3.40915 16.3764 3.47058 16.2902C3.53489 16.1999 3.62588 16.0883 3.76808 15.9145L2.99413 15.2813ZM3.70694 14.2928C3.70445 14.3113 3.68716 14.3804 3.56295 14.5592C3.4415 14.7339 3.26067 14.9555 2.99413 15.2813L3.76808 15.9145C4.02394 15.6018 4.23491 15.3445 4.38411 15.1298C4.53054 14.9192 4.66274 14.6883 4.69801 14.4261L3.70694 14.2928ZM3.51466 13.8286C3.65749 13.9375 3.73088 14.1147 3.70694 14.2928L4.69801 14.4261C4.76986 13.892 4.54966 13.3604 4.12119 13.0335L3.51466 13.8286ZM2.31168 13.6337C2.73051 13.6755 3.01507 13.7044 3.2245 13.7421C3.43871 13.7806 3.49983 13.8173 3.51466 13.8286L4.12119 13.0335C3.91083 12.8731 3.65413 12.8033 3.40161 12.7579C3.14432 12.7116 2.81322 12.6788 2.41118 12.6386L2.31168 13.6337ZM1.31242 13.4281C1.46166 13.5051 1.61482 13.5435 1.7696 13.5695C1.91945 13.5947 2.10145 13.6126 2.31168 13.6337L2.41118 12.6386C2.18774 12.6163 2.04449 12.6017 1.93519 12.5833C1.8308 12.5658 1.79088 12.5497 1.77081 12.5394L1.31242 13.4281ZM0.605071 12.6465C0.738523 12.9841 0.989836 13.2618 1.31242 13.4281L1.77081 12.5394C1.66328 12.4839 1.57951 12.3914 1.53502 12.2789L0.605071 12.6465ZM0.5 11.6318C0.5 11.8431 0.499741 12.0259 0.509867 12.1776C0.520325 12.3341 0.543329 12.4904 0.605071 12.6465L1.53502 12.2789C1.52672 12.2578 1.5147 12.2165 1.50764 12.1109C1.50026 12.0003 1.5 11.8563 1.5 11.6318H0.5ZM0.5 10.3683V11.6318H1.5V10.3683H0.5ZM0.605126 9.35333C0.543352 9.50953 0.520336 9.66579 0.509872 9.82242C0.499741 9.97408 0.5 10.157 0.5 10.3683H1.5C1.5 10.1437 1.50026 9.9997 1.50765 9.88908C1.51471 9.78344 1.52673 9.74211 1.53504 9.7211L0.605126 9.35333ZM1.31228 8.57193C0.989811 8.73829 0.738575 9.0159 0.605126 9.35333L1.53504 9.7211C1.57952 9.60863 1.66327 9.51609 1.77076 9.46063L1.31228 8.57193ZM2.3118 8.36633C2.10152 8.38735 1.91947 8.4053 1.76957 8.43047C1.61476 8.45647 1.46156 8.49492 1.31229 8.57193L1.77076 9.46063C1.79084 9.45027 1.83076 9.4342 1.93518 9.41666C2.04452 9.3983 2.1878 9.38371 2.4113 9.36136L2.3118 8.36633ZM2.36155 8.36384H2.36155V9.36384H2.36155V8.36384ZM2.36156 8.36384H2.36155V9.36384H2.36156V8.36384ZM3.51509 8.17132C3.50025 8.18265 3.43914 8.21933 3.22487 8.25789C3.01538 8.2956 2.73074 8.32443 2.31181 8.36633L2.41131 9.36136C2.81346 9.32115 3.14464 9.2884 3.402 9.24208C3.65458 9.19662 3.91135 9.12684 4.12174 8.9663L3.51509 8.17132ZM3.70732 7.70725C3.73124 7.88524 3.65786 8.06238 3.5151 8.17132L4.12174 8.9663C4.55004 8.63946 4.77016 8.10804 4.69841 7.57408L3.70732 7.70725ZM2.9943 6.71844C3.26093 7.04432 3.44182 7.26599 3.5633 7.4408C3.68756 7.61959 3.70484 7.68875 3.70732 7.70725L4.69841 7.57408C4.66317 7.31178 4.53094 7.08087 4.38448 6.87012C4.23524 6.65537 4.0242 6.39802 3.76826 6.0852L2.9943 6.71844ZM2.43283 5.86614C2.48393 6.02617 2.56508 6.16171 2.65618 6.28959C2.74439 6.4134 2.86045 6.55484 2.9943 6.71844L3.76826 6.0852C3.62599 5.91132 3.53497 5.79966 3.47063 5.70935C3.40918 5.6231 3.39232 5.58349 3.38545 5.56197L2.43283 5.86614ZM2.48532 4.81371C2.34112 5.14663 2.32247 5.52052 2.43283 5.86614L3.38544 5.56197C3.34866 5.44676 3.35488 5.32213 3.40294 5.21116L2.48532 4.81371ZM3.12878 4.02153C2.97933 4.17099 2.84977 4.30018 2.74969 4.41459C2.64632 4.53276 2.55209 4.65955 2.48532 4.81371L3.40294 5.21116C3.41192 5.19042 3.43264 5.15269 3.50236 5.07299C3.57536 4.98953 3.67704 4.88749 3.83589 4.72864L3.12878 4.02153ZM4.0221 3.12822L3.12878 4.02154L3.83589 4.72864L4.72921 3.83532L4.0221 3.12822ZM4.0221 3.12821L4.0221 3.12822L4.72921 3.83532L4.72921 3.83532L4.0221 3.12821ZM4.81398 2.48494C4.65989 2.55171 4.53315 2.64591 4.41502 2.74925C4.30065 2.8493 4.1715 2.97881 4.0221 3.12821L4.72921 3.83532C4.888 3.67653 4.99001 3.57489 5.07343 3.50191C5.15311 3.43221 5.19082 3.41149 5.21155 3.40251L4.81398 2.48494ZM5.86677 2.43243C5.52105 2.32199 5.147 2.34065 4.81398 2.48494L5.21155 3.40251C5.32256 3.35442 5.44724 3.3482 5.56248 3.38501L5.86677 2.43243ZM6.71882 2.99378C6.55526 2.85997 6.41386 2.74394 6.29008 2.65575C6.16225 2.56467 6.02675 2.48354 5.86677 2.43243L5.56248 3.38501C5.58399 3.39188 5.62359 3.40874 5.70982 3.47018C5.80011 3.53451 5.91175 3.62551 6.08558 3.76774L6.71882 2.99378ZM7.70718 3.70654C7.6887 3.70405 7.61957 3.68676 7.44085 3.56255C7.26613 3.44111 7.04455 3.26029 6.71882 2.99378L6.08558 3.76774C6.39826 4.02357 6.6555 4.23451 6.87013 4.38369C7.08078 4.5301 7.31156 4.66229 7.57371 4.69759L7.70718 3.70654ZM8.17149 3.51422C8.06252 3.6571 7.88526 3.73052 7.70718 3.70654L7.57371 4.69759C8.10797 4.76954 8.63975 4.54927 8.96665 4.12062L8.17149 3.51422ZM8.36635 2.31155C8.32448 2.73026 8.29566 3.01474 8.25799 3.22412C8.21945 3.43828 8.1828 3.49938 8.17149 3.51422L8.96665 4.12062C9.12704 3.9103 9.19676 3.65367 9.24218 3.40121C9.28847 3.14399 9.3212 2.81299 9.36139 2.41106L8.36635 2.31155ZM8.57179 1.31256C8.49485 1.46176 8.45643 1.61489 8.43046 1.76962C8.4053 1.91943 8.38737 2.10139 8.36635 2.31155L9.36139 2.41106C9.38373 2.18768 9.39831 2.04447 9.41665 1.93519C9.43417 1.83083 9.45024 1.79092 9.46059 1.77085L8.57179 1.31256ZM9.35361 0.605014C9.01596 0.738471 8.73818 0.989863 8.57179 1.31255L9.46059 1.77085C9.51605 1.66329 9.60865 1.57949 9.7212 1.535L9.35361 0.605014ZM10.3681 0.5C10.1569 0.5 9.97405 0.499742 9.82247 0.509862C9.66592 0.520314 9.50974 0.543305 9.35361 0.605014L9.7212 1.535C9.7422 1.5267 9.7835 1.51469 9.88909 1.50764C9.99965 1.50026 10.1436 1.5 10.3681 1.5V0.5ZM11.6318 0.5H10.3681V1.5H11.6318V0.5ZM12.6465 0.605072C12.4904 0.543329 12.3341 0.520326 12.1776 0.509867C12.0259 0.499741 11.8431 0.5 11.6318 0.5V1.5C11.8563 1.5 12.0003 1.50026 12.1109 1.50764C12.2165 1.5147 12.2578 1.52672 12.2789 1.53502L12.6465 0.605072ZM13.4281 1.31242C13.2618 0.989837 12.9841 0.738524 12.6465 0.605072L12.2789 1.53502C12.3914 1.57951 12.4839 1.66328 12.5394 1.7708L13.4281 1.31242ZM14.5 11C14.5 12.933 12.933 14.5 11 14.5V15.5C13.4853 15.5 15.5 13.4853 15.5 11H14.5ZM11 7.5C12.933 7.5 14.5 9.067 14.5 11H15.5C15.5 8.51472 13.4853 6.5 11 6.5V7.5ZM7.5 11C7.5 9.067 9.067 7.5 11 7.5V6.5C8.51472 6.5 6.5 8.51472 6.5 11H7.5ZM11 14.5C9.067 14.5 7.5 12.933 7.5 11H6.5C6.5 13.4853 8.51472 15.5 11 15.5V14.5Z" fill="#222222"/>
</svg>
