<?xml version="1.0" encoding="UTF-8"?>
<!DOCTYPE svg PUBLIC "-//W3C//DTD SVG 1.1//EN" "http://www.w3.org/Graphics/SVG/1.1/DTD/svg11.dtd">
<svg xmlns="http://www.w3.org/2000/svg" version="1.1" width="200px" height="200px" style="shape-rendering:geometricPrecision; text-rendering:geometricPrecision; image-rendering:optimizeQuality; fill-rule:evenodd; clip-rule:evenodd" xmlns:xlink="http://www.w3.org/1999/xlink">
<g><path style="opacity:0.196" fill="#dfdfdf" d="M 101.5,23.5 C 101.167,23.5 100.833,23.5 100.5,23.5C 99.8333,23.5 99.1667,23.5 98.5,23.5C 98.1667,23.5 97.8333,23.5 97.5,23.5C 98.8333,20.8333 100.167,20.8333 101.5,23.5 Z"/></g>
<g><path style="opacity:0.737" fill="#515151" d="M 97.5,23.5 C 97.8333,23.5 98.1667,23.5 98.5,23.5C 99.1667,51.5 99.8333,51.5 100.5,23.5C 100.833,23.5 101.167,23.5 101.5,23.5C 101.5,23.8333 101.5,24.1667 101.5,24.5C 101.5,31.1667 101.5,37.8333 101.5,44.5C 100.167,47.1667 98.8333,47.1667 97.5,44.5C 97.5,37.8333 97.5,31.1667 97.5,24.5C 97.5,24.1667 97.5,23.8333 97.5,23.5 Z"/></g>
<g><path style="opacity:1" fill="#030303" d="M 98.5,23.5 C 99.1667,23.5 99.8333,23.5 100.5,23.5C 99.8333,51.5 99.1667,51.5 98.5,23.5 Z"/></g>
<g><path style="opacity:0.076" fill="#efefef" d="M 101.5,24.5 C 102.391,25.2613 103.058,26.2613 103.5,27.5C 102.381,31.7552 102.381,36.2552 103.5,41C 102.915,42.3024 102.249,43.469 101.5,44.5C 101.5,37.8333 101.5,31.1667 101.5,24.5 Z"/></g>
<g><path style="opacity:0.059" fill="#f1f1f1" d="M 97.5,24.5 C 97.5,31.1667 97.5,37.8333 97.5,44.5C 96.6236,44.6309 95.9569,44.2975 95.5,43.5C 96.8333,38.1667 96.8333,32.8333 95.5,27.5C 95.9424,26.2613 96.6091,25.2613 97.5,24.5 Z"/></g>
<g><path style="opacity:0.18" fill="#cacaca" d="M 125.5,42.5 C 125.5,41.1667 125.5,39.8333 125.5,38.5C 124.325,38.281 123.325,38.6143 122.5,39.5C 122.058,40.7387 121.391,41.7387 120.5,42.5C 120.475,37.0013 122.809,35.5013 127.5,38C 127.794,39.6536 127.127,41.1536 125.5,42.5 Z"/></g>
<g><path style="opacity:0.49" fill="#c0c0c0" d="M 78.5,42.5 C 77.5489,40.882 76.2156,39.5487 74.5,38.5C 73.9426,40.7175 73.9426,43.0509 74.5,45.5C 73.8826,45.6107 73.3826,45.944 73,46.5C 73.3308,44.9813 73.1641,43.648 72.5,42.5C 72.0589,40.4833 71.8922,38.4833 72,36.5C 73.3204,36.799 74.8204,36.9657 76.5,37C 77.8613,38.5843 78.528,40.4176 78.5,42.5 Z"/></g>
<g><path style="opacity:1" fill="#2a2a2a" d="M 125.5,42.5 C 125.5,43.1667 125.5,43.8333 125.5,44.5C 125.167,44.5 124.833,44.5 124.5,44.5C 123.463,45.9303 122.796,47.597 122.5,49.5C 121.5,50.8333 120.5,50.8333 119.5,49.5C 119.674,47.139 120.007,44.8056 120.5,42.5C 121.391,41.7387 122.058,40.7387 122.5,39.5C 123.325,38.6143 124.325,38.281 125.5,38.5C 125.5,39.8333 125.5,41.1667 125.5,42.5 Z"/></g>
<g><path style="opacity:0.004" fill="#fcfdfc" d="M 72.5,42.5 C 71.8333,43.1667 71.8333,43.1667 72.5,42.5 Z"/></g>
<g><path style="opacity:0.004" fill="#fafbfa" d="M 152.5,42.5 C 153.833,43.1667 153.833,43.1667 152.5,42.5 Z"/></g>
<g><path style="opacity:0.02" fill="#f6f7f6" d="M 43.5,43.5 C 44.8333,44.1667 44.8333,44.1667 43.5,43.5 Z"/></g>
<g><path style="opacity:0.008" fill="#f0f1f0" d="M 49.5,43.5 C 50.8333,44.1667 50.8333,44.1667 49.5,43.5 Z"/></g>
<g><path style="opacity:0.016" fill="#f5f6f5" d="M 154.5,43.5 C 155.833,44.1667 155.833,44.1667 154.5,43.5 Z"/></g>
<g><path style="opacity:0.004" fill="#f8f9f8" d="M 43.5,44.5 C 43.5,44.8333 43.5,45.1667 43.5,45.5C 42.8299,45.0187 42.8299,44.6853 43.5,44.5 Z"/></g>
<g><path style="opacity:1" fill="#222222" d="M 78.5,42.5 C 79.404,43.209 79.7373,44.209 79.5,45.5C 79.762,46.9778 79.4287,48.3112 78.5,49.5C 77.16,48.1335 75.8267,46.8001 74.5,45.5C 73.9426,43.0509 73.9426,40.7175 74.5,38.5C 76.2156,39.5487 77.5489,40.882 78.5,42.5 Z"/></g>
<g><path style="opacity:0.024" fill="#f3f4f3" d="M 125.5,44.5 C 126.833,45.1667 126.833,45.1667 125.5,44.5 Z"/></g>
<g><path style="opacity:0.322" fill="#bababa" d="M 45.5,45.5 C 46.5676,44.5655 47.901,44.2322 49.5,44.5C 49.5,45.1667 49.5,45.8333 49.5,46.5C 48.2921,45.7659 46.9587,45.4326 45.5,45.5 Z"/></g>
<g><path style="opacity:0.016" fill="#eff0ef" d="M 51.5,45.5 C 52.8333,46.1667 52.8333,46.1667 51.5,45.5 Z"/></g>
<g><path style="opacity:0.11" fill="#dbdbdb" d="M 120.5,42.5 C 120.007,44.8056 119.674,47.139 119.5,49.5C 118.305,49.1344 117.639,48.301 117.5,47C 118.348,45.3336 119.348,43.8336 120.5,42.5 Z"/></g>
<g><path style="opacity:0.027" fill="#edeeed" d="M 147.5,46.5 C 146.833,45.1667 146.833,45.1667 147.5,46.5 Z"/></g>
<g><path style="opacity:0.294" fill="#c6c6c6" d="M 154.5,44.5 C 154.768,46.099 154.434,47.4324 153.5,48.5C 153.5,47.5 153.5,46.5 153.5,45.5C 152.041,45.4326 150.708,45.7659 149.5,46.5C 148.913,45.2334 148.913,44.2334 149.5,43.5C 151.071,44.3094 152.738,44.6427 154.5,44.5 Z"/></g>
<g><path style="opacity:0.4" fill="#bfbfbf" d="M 43.5,45.5 C 44.1667,45.5 44.8333,45.5 45.5,45.5C 45.5,46.5 45.5,47.5 45.5,48.5C 44.0937,48.0269 43.427,47.0269 43.5,45.5 Z"/></g>
<g><path style="opacity:0.008" fill="#d3d3d3" d="M 49.5,46.5 C 50.1667,46.5 50.8333,46.5 51.5,46.5C 51.5,47.1667 51.5,47.8333 51.5,48.5C 50.5,48.1667 49.8333,47.5 49.5,46.5 Z"/></g>
<g><path style="opacity:1" fill="#1a1a1a" d="M 153.5,48.5 C 152.833,48.8333 152.167,49.1667 151.5,49.5C 150.737,48.7321 149.737,48.2321 148.5,48C 149.056,47.6174 149.389,47.1174 149.5,46.5C 150.708,45.7659 152.041,45.4326 153.5,45.5C 153.5,46.5 153.5,47.5 153.5,48.5 Z"/></g>
<g><path style="opacity:0.047" fill="#d2d2d2" d="M 124.5,44.5 C 124.88,46.698 124.213,48.3646 122.5,49.5C 122.796,47.597 123.463,45.9303 124.5,44.5 Z"/></g>
<g><path style="opacity:0.043" fill="#cfcfcf" d="M 45.5,48.5 C 46.5,48.8333 47.1667,49.5 47.5,50.5C 46.1667,50.5 45.5,49.8333 45.5,48.5 Z"/></g>
<g><path style="opacity:0.004" fill="#dfdfdf" d="M 54.5,51.5 C 53.5,51.1667 52.8333,50.5 52.5,49.5C 54.2027,48.3398 54.8693,49.0065 54.5,51.5 Z"/></g>
<g><path style="opacity:0.247" fill="#c7c7c7" d="M 74.5,45.5 C 75.8267,46.8001 77.16,48.1335 78.5,49.5C 79.4287,48.3112 79.762,46.9778 79.5,45.5C 82.0521,47.4674 81.7187,49.134 78.5,50.5C 76.7338,49.9091 75.0672,49.0758 73.5,48C 74.2524,47.3292 74.5858,46.4959 74.5,45.5 Z"/></g>
<g><path style="opacity:1" fill="#414141" d="M 147.5,46.5 C 148.167,46.5 148.833,46.5 149.5,46.5C 149.389,47.1174 149.056,47.6174 148.5,48C 149.737,48.2321 150.737,48.7321 151.5,49.5C 151.5,49.8333 151.5,50.1667 151.5,50.5C 150.833,51.5 150.167,52.5 149.5,53.5C 148.167,54.5 146.833,55.5 145.5,56.5C 145.167,56.5 144.833,56.5 144.5,56.5C 144.5,55.5 144.5,54.5 144.5,53.5C 147.336,53.7978 147.836,53.1311 146,51.5C 145.329,52.2524 144.496,52.5858 143.5,52.5C 145.252,50.7541 146.585,48.7541 147.5,46.5 Z"/></g>
<g><path style="opacity:0.008" fill="#e6e6e6" d="M 153.5,48.5 C 155.124,51.3584 154.457,52.0251 151.5,50.5C 151.5,50.1667 151.5,49.8333 151.5,49.5C 152.167,49.1667 152.833,48.8333 153.5,48.5 Z"/></g>
<g><path style="opacity:1" fill="#232323" d="M 45.5,45.5 C 46.9587,45.4326 48.2921,45.7659 49.5,46.5C 49.8333,47.5 50.5,48.1667 51.5,48.5C 52.1667,48.5 52.5,48.8333 52.5,49.5C 52.8333,50.5 53.5,51.1667 54.5,51.5C 55.1667,51.5 55.5,51.8333 55.5,52.5C 55.8333,53.5 56.5,54.1667 57.5,54.5C 58.1667,55.8333 59.1667,56.8333 60.5,57.5C 61.2341,58.7079 61.5674,60.0413 61.5,61.5C 60.5,61.5 59.5,61.5 58.5,61.5C 58.1667,60.5 57.5,59.8333 56.5,59.5C 55.8333,59.5 55.5,59.1667 55.5,58.5C 55.1667,57.5 54.5,56.8333 53.5,56.5C 52.5,55.8333 51.5,55.1667 50.5,54.5C 50.5,54.1667 50.5,53.8333 50.5,53.5C 50.1667,52.5 49.5,51.8333 48.5,51.5C 47.8333,51.5 47.5,51.1667 47.5,50.5C 47.1667,49.5 46.5,48.8333 45.5,48.5C 45.5,47.5 45.5,46.5 45.5,45.5 Z"/></g>
<g><path style="opacity:0.006" fill="#f5f5f5" d="M 86.5,52.5 C 85.7611,52.631 85.0944,52.4643 84.5,52C 85.4368,51.3083 86.1034,51.475 86.5,52.5 Z"/></g>
<g><path style="opacity:0.004" fill="#f5f6f5" d="M 113.5,51.5 C 114.833,52.1667 114.833,52.1667 113.5,51.5 Z"/></g>
<g><path style="opacity:0.016" fill="#dedede" d="M 143.5,52.5 C 143.167,53.5 142.5,54.1667 141.5,54.5C 139.876,51.6416 140.543,50.9749 143.5,52.5 Z"/></g>
<g><path style="opacity:0.004" fill="#dfdfdf" d="M 48.5,51.5 C 49.5,51.8333 50.1667,52.5 50.5,53.5C 49.8333,53.5 49.5,53.8333 49.5,54.5C 48.596,53.791 48.2627,52.791 48.5,51.5 Z"/></g>
<g><path style="opacity:0.043" fill="#dadada" d="M 57.5,54.5 C 56.5,54.1667 55.8333,53.5 55.5,52.5C 58.4574,50.9749 59.1241,51.6416 57.5,54.5 Z"/></g>
<g><path style="opacity:0.051" fill="#dcdcdc" d="M 117.5,55.5 C 109.031,53.0009 100.365,52.0009 91.5,52.5C 98.9951,50.3266 106.495,50.6599 114,53.5C 115.953,52.246 117.12,52.9126 117.5,55.5 Z"/></g>
<g><path style="opacity:0.024" fill="#ebeceb" d="M 59.5,53.5 C 60.8333,54.1667 60.8333,54.1667 59.5,53.5 Z"/></g>
<g><path style="opacity:0.022" fill="#dadada" d="M 83.5,54.5 C 82.4863,55.6737 81.153,56.3404 79.5,56.5C 80.0764,53.8758 81.4098,53.2092 83.5,54.5 Z"/></g>
<g><path style="opacity:0.51" fill="#b0b0b0" d="M 86.5,52.5 C 88.1667,52.5 89.8333,52.5 91.5,52.5C 89.0948,53.7682 86.4282,54.4349 83.5,54.5C 84.5,53.8333 85.5,53.1667 86.5,52.5 Z"/></g>
<g><path style="opacity:1" fill="#1e1e1e" d="M 91.5,52.5 C 100.365,52.0009 109.031,53.0009 117.5,55.5C 118.514,56.6737 119.847,57.3404 121.5,57.5C 122.167,57.5 122.833,57.5 123.5,57.5C 123.5,57.8333 123.5,58.1667 123.5,58.5C 123.833,59.1667 124.167,59.8333 124.5,60.5C 123.596,61.209 123.263,62.209 123.5,63.5C 122.508,63.6716 121.842,63.3382 121.5,62.5C 120.486,61.3263 119.153,60.6596 117.5,60.5C 116.508,60.6716 115.842,60.3382 115.5,59.5C 113.485,58.0762 111.152,57.4095 108.5,57.5C 107.791,56.596 106.791,56.2627 105.5,56.5C 103.527,55.8373 101.361,55.5039 99,55.5C 95.5226,55.3275 92.356,55.9942 89.5,57.5C 84.0631,57.8896 79.3964,59.8896 75.5,63.5C 73.7697,64.0256 72.4363,65.0256 71.5,66.5C 70.1667,68.5 68.5,70.1667 66.5,71.5C 65.0937,71.9731 64.427,72.9731 64.5,74.5C 64.0679,75.7095 63.4013,76.7095 62.5,77.5C 62.1788,75.9519 61.1788,75.2852 59.5,75.5C 60.1098,74.609 60.4431,73.609 60.5,72.5C 62.4707,70.1918 64.4707,67.8585 66.5,65.5C 66.5,64.8333 66.8333,64.5 67.5,64.5C 69.3885,63.396 71.0552,62.0627 72.5,60.5C 74.0269,60.573 75.0269,59.9063 75.5,58.5C 75.5,58.1667 75.5,57.8333 75.5,57.5C 76.8333,57.1667 78.1667,56.8333 79.5,56.5C 81.153,56.3404 82.4863,55.6737 83.5,54.5C 86.4282,54.4349 89.0948,53.7682 91.5,52.5 Z"/></g>
<g><path style="opacity:0.008" fill="#ebeceb" d="M 138.5,53.5 C 139.833,54.1667 139.833,54.1667 138.5,53.5 Z"/></g>
<g><path style="opacity:0.043" fill="#eff0ef" d="M 149.5,53.5 C 150.833,54.1667 150.833,54.1667 149.5,53.5 Z"/></g>
<g><path style="opacity:0.004" fill="#f8f9f8" d="M 49.5,54.5 C 49.8333,54.5 50.1667,54.5 50.5,54.5C 50.3147,55.1701 49.9813,55.1701 49.5,54.5 Z"/></g>
<g><path style="opacity:0.043" fill="#dedede" d="M 57.5,54.5 C 58.1667,54.5 58.8333,54.5 59.5,54.5C 59.9175,55.2216 60.5842,55.7216 61.5,56C 60.944,56.3826 60.6107,56.8826 60.5,57.5C 59.1667,56.8333 58.1667,55.8333 57.5,54.5 Z"/></g>
<g><path style="opacity:0.012" fill="#edeeed" d="M 50.5,56.5 C 51.8333,57.1667 51.8333,57.1667 50.5,56.5 Z"/></g>
<g><path style="opacity:0.012" fill="#f5f5f5" d="M 75.5,57.5 C 74.7611,57.631 74.0944,57.4643 73.5,57C 74.4368,56.3083 75.1034,56.475 75.5,57.5 Z"/></g>
<g><path style="opacity:0.086" fill="#ababab" d="M 105.5,56.5 C 105.167,56.5 104.833,56.5 104.5,56.5C 101.15,56.335 97.8168,56.5017 94.5,57C 95.6956,57.6543 95.6956,58.1543 94.5,58.5C 92.9291,57.6906 91.2624,57.3573 89.5,57.5C 92.356,55.9942 95.5226,55.3275 99,55.5C 101.361,55.5039 103.527,55.8373 105.5,56.5 Z"/></g>
<g><path style="opacity:0.016" fill="#e1e1e1" d="M 104.5,56.5 C 104.833,56.5 105.167,56.5 105.5,56.5C 106.791,56.2627 107.791,56.596 108.5,57.5C 107.07,57.4208 105.736,57.7542 104.5,58.5C 103.537,58.0302 103.537,57.3635 104.5,56.5 Z"/></g>
<g><path style="opacity:0.235" fill="#b6b6b6" d="M 117.5,55.5 C 119.38,55.2291 120.713,55.8958 121.5,57.5C 119.847,57.3404 118.514,56.6737 117.5,55.5 Z"/></g>
<g><path style="opacity:0.016" fill="#f2f2f2" d="M 123.5,57.5 C 123.897,56.475 124.563,56.3083 125.5,57C 124.906,57.4643 124.239,57.631 123.5,57.5 Z"/></g>
<g><path style="opacity:0.275" fill="#c9c9c9" d="M 140.5,55.5 C 139.833,56.8333 138.833,57.8333 137.5,58.5C 137.5,56.5 138.5,55.5 140.5,55.5 Z"/></g>
<g><path style="opacity:1" fill="#232323" d="M 144.5,56.5 C 144.167,57.1667 143.833,57.8333 143.5,58.5C 143.167,59.1667 142.833,59.8333 142.5,60.5C 142.167,60.5 141.833,60.5 141.5,60.5C 140.292,61.2341 138.959,61.5674 137.5,61.5C 137.5,60.5 137.5,59.5 137.5,58.5C 138.833,57.8333 139.833,56.8333 140.5,55.5C 140.5,54.8333 140.833,54.5 141.5,54.5C 142.5,54.1667 143.167,53.5 143.5,52.5C 144.496,52.5858 145.329,52.2524 146,51.5C 147.836,53.1311 147.336,53.7978 144.5,53.5C 144.5,54.5 144.5,55.5 144.5,56.5 Z"/></g>
<g><path style="opacity:0.02" fill="#ecedec" d="M 147.5,56.5 C 148.833,57.1667 148.833,57.1667 147.5,56.5 Z"/></g>
<g><path style="opacity:0.063" fill="#d8d8d8" d="M 60.5,57.5 C 63.4811,57.7944 64.1478,59.1278 62.5,61.5C 62.1667,61.5 61.8333,61.5 61.5,61.5C 61.5674,60.0413 61.2341,58.7079 60.5,57.5 Z"/></g>
<g><path style="opacity:0.004" fill="#f8f9f8" d="M 136.5,58.5 C 135.833,57.1667 135.833,57.1667 136.5,58.5 Z"/></g>
<g><path style="opacity:0.008" fill="#e7e7e7" d="M 53.5,56.5 C 54.5,56.8333 55.1667,57.5 55.5,58.5C 52.5426,60.0251 51.8759,59.3584 53.5,56.5 Z"/></g>
<g><path style="opacity:0.018" fill="#e0e0e0" d="M 108.5,57.5 C 111.152,57.4095 113.485,58.0762 115.5,59.5C 112.848,59.5905 110.515,58.9238 108.5,57.5 Z"/></g>
<g><path style="opacity:0.008" fill="#e6e6e6" d="M 144.5,56.5 C 144.833,56.5 145.167,56.5 145.5,56.5C 147.124,59.3584 146.457,60.0251 143.5,58.5C 143.833,57.8333 144.167,57.1667 144.5,56.5 Z"/></g>
<g><path style="opacity:0.651" fill="#8a8a8a" d="M 75.5,58.5 C 75.0269,59.9063 74.0269,60.573 72.5,60.5C 72.9731,59.0937 73.9731,58.427 75.5,58.5 Z"/></g>
<g><path style="opacity:0.212" fill="#bdbdbd" d="M 89.5,57.5 C 84.9014,59.4608 80.2347,61.4608 75.5,63.5C 79.3964,59.8896 84.0631,57.8896 89.5,57.5 Z"/></g>
<g><path style="opacity:0.275" fill="#a6a6a6" d="M 123.5,58.5 C 125.027,58.427 126.027,59.0937 126.5,60.5C 125.833,60.5 125.167,60.5 124.5,60.5C 124.167,59.8333 123.833,59.1667 123.5,58.5 Z"/></g>
<g><path style="opacity:0.02" fill="#d6d6d6" d="M 56.5,59.5 C 57.5,59.8333 58.1667,60.5 58.5,61.5C 57.1667,61.5 56.5,60.8333 56.5,59.5 Z"/></g>
<g><path style="opacity:0.031" fill="#dedede" d="M 136.5,58.5 C 136.833,58.5 137.167,58.5 137.5,58.5C 137.5,59.5 137.5,60.5 137.5,61.5C 136.833,61.5 136.5,61.8333 136.5,62.5C 135.646,61.3684 135.646,60.035 136.5,58.5 Z"/></g>
<g><path style="opacity:0.067" fill="#eaebea" d="M 142.5,60.5 C 143.833,61.1667 143.833,61.1667 142.5,60.5 Z"/></g>
<g><path style="opacity:0.047" fill="#f0f1f0" d="M 62.5,61.5 C 63.8333,62.1667 63.8333,62.1667 62.5,61.5 Z"/></g>
<g><path style="opacity:0.024" fill="#e2e2e2" d="M 117.5,60.5 C 119.153,60.6596 120.486,61.3263 121.5,62.5C 119.62,62.7709 118.287,62.1042 117.5,60.5 Z"/></g>
<g><path style="opacity:0.082" fill="#d2d2d2" d="M 141.5,60.5 C 140.805,62.85 139.472,63.5167 137.5,62.5C 137.5,62.1667 137.5,61.8333 137.5,61.5C 138.959,61.5674 140.292,61.2341 141.5,60.5 Z"/></g>
<g><path style="opacity:0.012" fill="#f4f5f4" d="M 58.5,62.5 C 57.8333,63.1667 57.8333,63.1667 58.5,62.5 Z"/></g>
<g><path style="opacity:0.008" fill="#dedede" d="M 58.5,62.5 C 58.5,62.1667 58.5,61.8333 58.5,61.5C 59.5,61.5 60.5,61.5 61.5,61.5C 61.5,62.1667 61.8333,62.5 62.5,62.5C 61.3684,63.3543 60.035,63.3543 58.5,62.5 Z"/></g>
<g><path style="opacity:0.22" fill="#c9c9c9" d="M 72.5,60.5 C 71.0552,62.0627 69.3885,63.396 67.5,64.5C 68.1839,62.5512 69.3506,60.8845 71,59.5C 71.3826,60.056 71.8826,60.3893 72.5,60.5 Z"/></g>
<g><path style="opacity:0.224" fill="#bbbbbb" d="M 126.5,60.5 C 129.681,61.3485 132.348,63.0152 134.5,65.5C 135.988,67.4887 137.655,69.322 139.5,71C 139.167,71.3333 138.833,71.6667 138.5,72C 139.823,72.8159 140.489,73.9826 140.5,75.5C 136.539,69.8714 131.873,64.8714 126.5,60.5 Z"/></g>
<g><path style="opacity:0.047" fill="#eff0ef" d="M 136.5,62.5 C 136.833,62.5 137.167,62.5 137.5,62.5C 137.315,63.1701 136.981,63.1701 136.5,62.5 Z"/></g>
<g><path style="opacity:0.012" fill="#f7f8f7" d="M 134.5,64.5 C 135.833,65.1667 135.833,65.1667 134.5,64.5 Z"/></g>
<g><path style="opacity:0.11" fill="#d1d1d1" d="M 75.5,63.5 C 74.9653,65.4456 73.632,66.4456 71.5,66.5C 72.4363,65.0256 73.7697,64.0256 75.5,63.5 Z"/></g>
<g><path style="opacity:0.102" fill="#c9c9c9" d="M 123.5,63.5 C 125.23,64.0256 126.564,65.0256 127.5,66.5C 125.368,66.4456 124.035,65.4456 123.5,63.5 Z"/></g>
<g><path style="opacity:0.757" fill="#7b7b7b" d="M 127.5,66.5 C 130.167,67.1667 131.833,68.8333 132.5,71.5C 130.5,70.1667 128.833,68.5 127.5,66.5 Z"/></g>
<g><path style="opacity:0.227" fill="#d0d0d0" d="M 66.5,65.5 C 64.4707,67.8585 62.4707,70.1918 60.5,72.5C 60.7697,70.1932 62.103,68.0265 64.5,66C 64.1667,65.6667 63.8333,65.3333 63.5,65C 64.5768,64.5304 65.5768,64.6971 66.5,65.5 Z"/></g>
<g><path style="opacity:0.082" fill="#c3c3c3" d="M 66.5,71.5 C 66.573,73.0269 65.9063,74.0269 64.5,74.5C 64.427,72.9731 65.0937,71.9731 66.5,71.5 Z"/></g>
<g><path style="opacity:0.067" fill="#c6c6c6" d="M 132.5,71.5 C 133.906,71.9731 134.573,72.9731 134.5,74.5C 133.094,74.0269 132.427,73.0269 132.5,71.5 Z"/></g>
<g><path style="opacity:0.055" fill="#e0e0e0" d="M 152.5,73.5 C 153.705,72.3143 155.039,72.3143 156.5,73.5C 156.158,74.3382 155.492,74.6716 154.5,74.5C 154.158,73.6618 153.492,73.3284 152.5,73.5 Z"/></g>
<g><path style="opacity:0.122" fill="#d4d4d4" d="M 44.5,74.5 C 43.5084,74.6716 42.8417,74.3382 42.5,73.5C 44.8375,71.9893 45.5042,72.3227 44.5,74.5 Z"/></g>
<g><path style="opacity:0.655" fill="#9d9d9d" d="M 60.5,72.5 C 60.4431,73.609 60.1098,74.609 59.5,75.5C 59.1667,75.5 58.8333,75.5 58.5,75.5C 57.5092,73.8773 58.1759,72.8773 60.5,72.5 Z"/></g>
<g><path style="opacity:1" fill="#181818" d="M 156.5,73.5 C 157.833,73.5 159.167,73.5 160.5,73.5C 160.5,74.5 160.5,75.5 160.5,76.5C 157.759,76.7073 155.426,77.7073 153.5,79.5C 152.167,79.5 150.833,79.5 149.5,79.5C 149.5,78.5 149.5,77.5 149.5,76.5C 151.153,76.3404 152.486,75.6737 153.5,74.5C 153.833,74.5 154.167,74.5 154.5,74.5C 155.492,74.6716 156.158,74.3382 156.5,73.5 Z"/></g>
<g><path style="opacity:0.475" fill="#b7b7b7" d="M 42.5,73.5 C 41.0222,73.238 39.6888,73.5713 38.5,74.5C 39.8665,75.84 41.1999,77.1733 42.5,78.5C 37.0013,78.5248 35.5013,76.1915 38,71.5C 38.7412,72.6405 39.5745,72.6405 40.5,71.5C 41.5223,71.8555 42.189,72.5222 42.5,73.5 Z"/></g>
<g><path style="opacity:0.024" fill="#dcdcdc" d="M 152.5,73.5 C 152.5,74.1667 152.833,74.5 153.5,74.5C 152.486,75.6737 151.153,76.3404 149.5,76.5C 150.167,75.1667 151.167,74.1667 152.5,73.5 Z"/></g>
<g><path style="opacity:0.353" fill="#c2c2c2" d="M 49.5,76.5 C 48.5084,76.6716 47.8417,76.3382 47.5,75.5C 48.3274,74.5613 48.9941,74.8946 49.5,76.5 Z"/></g>
<g><path style="opacity:1" fill="#262626" d="M 42.5,73.5 C 42.8417,74.3382 43.5084,74.6716 44.5,74.5C 45.609,74.5569 46.609,74.8902 47.5,75.5C 47.8417,76.3382 48.5084,76.6716 49.5,76.5C 49.5,77.5 49.5,78.5 49.5,79.5C 48.1667,79.5 46.8333,79.5 45.5,79.5C 44.209,79.7373 43.209,79.404 42.5,78.5C 41.1999,77.1733 39.8665,75.84 38.5,74.5C 39.6888,73.5713 41.0222,73.238 42.5,73.5 Z"/></g>
<g><path style="opacity:0.031" fill="#c9c9c9" d="M 153.5,79.5 C 155.426,77.7073 157.759,76.7073 160.5,76.5C 160.5,75.5 160.5,74.5 160.5,73.5C 159.167,73.5 157.833,73.5 156.5,73.5C 160.351,70.5065 162.184,71.5065 162,76.5C 159.31,77.9292 156.477,78.9292 153.5,79.5 Z"/></g>
<g><path style="opacity:0.243" fill="#bcbcbc" d="M 58.5,75.5 C 58.0075,77.8185 57.0075,79.8185 55.5,81.5C 55.461,78.911 56.461,76.911 58.5,75.5 Z"/></g>
<g><path style="opacity:0.239" fill="#bababa" d="M 140.5,75.5 C 142.539,76.911 143.539,78.911 143.5,81.5C 141.992,79.8185 140.992,77.8185 140.5,75.5 Z"/></g>
<g><path style="opacity:1" fill="#1a1a1a" d="M 58.5,75.5 C 58.8333,75.5 59.1667,75.5 59.5,75.5C 61.1788,75.2852 62.1788,75.9519 62.5,77.5C 60.8639,78.7489 59.6972,80.4156 59,82.5C 55.6921,90.0644 54.8587,97.731 56.5,105.5C 56.2627,106.791 56.596,107.791 57.5,108.5C 57.1706,111.228 57.8372,113.562 59.5,115.5C 59.6596,117.153 60.3263,118.486 61.5,119.5C 62.6737,120.514 63.3404,121.847 63.5,123.5C 64.0798,125.749 65.4131,127.415 67.5,128.5C 67.7845,130.415 67.4511,132.081 66.5,133.5C 64.7267,130.94 62.7267,128.607 60.5,126.5C 60.573,124.973 59.9063,123.973 58.5,123.5C 58.0075,121.181 57.0075,119.181 55.5,117.5C 54.596,116.791 54.2627,115.791 54.5,114.5C 51.8766,104.491 51.8766,94.4911 54.5,84.5C 54.2627,83.209 54.596,82.209 55.5,81.5C 57.0075,79.8185 58.0075,77.8185 58.5,75.5 Z"/></g>
<g><path style="opacity:0.235" fill="#d1d1d1" d="M 49.5,76.5 C 50.8861,78.7569 50.2195,80.4236 47.5,81.5C 46.4777,81.1445 45.811,80.4778 45.5,79.5C 46.8333,79.5 48.1667,79.5 49.5,79.5C 49.5,78.5 49.5,77.5 49.5,76.5 Z"/></g>
<g><path style="opacity:0.024" fill="#eff0ef" d="M 53.5,79.5 C 54.8333,80.1667 54.8333,80.1667 53.5,79.5 Z"/></g>
<g><path style="opacity:0.212" fill="#b1b1b1" d="M 62.5,77.5 C 60.3773,82.3137 58.7107,87.3137 57.5,92.5C 58.7052,94.1209 58.5385,95.4542 57,96.5C 56.5045,98.4727 56.3379,100.473 56.5,102.5C 56.5,103.5 56.5,104.5 56.5,105.5C 54.8587,97.731 55.6921,90.0644 59,82.5C 59.6972,80.4156 60.8639,78.7489 62.5,77.5 Z"/></g>
<g><path style="opacity:1" fill="#161616" d="M 124.5,60.5 C 125.167,60.5 125.833,60.5 126.5,60.5C 131.873,64.8714 136.539,69.8714 140.5,75.5C 140.992,77.8185 141.992,79.8185 143.5,81.5C 143.259,83.8984 143.926,85.8984 145.5,87.5C 146.832,96.8664 146.499,106.2 144.5,115.5C 144.672,116.492 144.338,117.158 143.5,117.5C 141.992,119.181 140.992,121.181 140.5,123.5C 140.672,124.492 140.338,125.158 139.5,125.5C 136.833,128.167 134.167,130.833 131.5,133.5C 130.508,133.672 129.842,133.338 129.5,132.5C 130.925,131.078 131.925,129.411 132.5,127.5C 134.262,126.738 135.262,125.404 135.5,123.5C 137.387,121.211 138.721,118.545 139.5,115.5C 141.68,112.619 142.68,109.286 142.5,105.5C 144.131,94.9828 142.131,84.9828 136.5,75.5C 136.043,74.7025 135.376,74.3691 134.5,74.5C 134.573,72.9731 133.906,71.9731 132.5,71.5C 131.833,68.8333 130.167,67.1667 127.5,66.5C 126.564,65.0256 125.23,64.0256 123.5,63.5C 123.263,62.209 123.596,61.209 124.5,60.5 Z"/></g>
<g><path style="opacity:0.02" fill="#f2f3f2" d="M 144.5,79.5 C 145.833,80.1667 145.833,80.1667 144.5,79.5 Z"/></g>
<g><path style="opacity:0.031" fill="#dcdcdc" d="M 149.5,76.5 C 149.5,77.5 149.5,78.5 149.5,79.5C 150.833,79.5 152.167,79.5 153.5,79.5C 152.63,81.5988 151.297,81.9321 149.5,80.5C 148.218,79.0416 148.218,77.7082 149.5,76.5 Z"/></g>
<g><path style="opacity:0.22" fill="#a8a8a8" d="M 134.5,74.5 C 135.376,74.3691 136.043,74.7025 136.5,75.5C 142.131,84.9828 144.131,94.9828 142.5,105.5C 142.5,105.167 142.5,104.833 142.5,104.5C 142.633,93.6931 139.966,83.6931 134.5,74.5 Z"/></g>
<g><path style="opacity:0.014" fill="#f4f4f4" d="M 145.5,83.5 C 145.369,82.7611 145.536,82.0944 146,81.5C 146.692,82.4368 146.525,83.1034 145.5,83.5 Z"/></g>
<g><path style="opacity:0.024" fill="#f3f3f3" d="M 52.5,81.5 C 53.525,81.8966 53.6917,82.5632 53,83.5C 52.5357,82.9056 52.369,82.2389 52.5,81.5 Z"/></g>
<g><path style="opacity:0.482" fill="#969696" d="M 143.5,81.5 C 144.167,82.1667 144.833,82.8333 145.5,83.5C 145.5,84.5 145.5,85.5 145.5,86.5C 145.5,86.8333 145.5,87.1667 145.5,87.5C 143.926,85.8984 143.259,83.8984 143.5,81.5 Z"/></g>
<g><path style="opacity:0.204" fill="#d8d8d8" d="M 54.5,84.5 C 51.8766,94.4911 51.8766,104.491 54.5,114.5C 54.1667,114.5 53.8333,114.5 53.5,114.5C 50.586,105.721 50.2526,96.8876 52.5,88C 52.1667,87.6667 51.8333,87.3333 51.5,87C 52.6906,86.3021 53.6906,85.4687 54.5,84.5 Z"/></g>
<g><path style="opacity:0.064" fill="#eeeeee" d="M 44.5,97.5 C 37.8333,97.5 31.1667,97.5 24.5,97.5C 26.2184,96.776 28.0517,96.1094 30,95.5C 34.4692,96.8106 38.9692,96.8106 43.5,95.5C 44.2975,95.9569 44.6309,96.6236 44.5,97.5 Z"/></g>
<g><path style="opacity:0.061" fill="#efefef" d="M 175.5,97.5 C 168.5,97.5 161.5,97.5 154.5,97.5C 154.369,96.7611 154.536,96.0944 155,95.5C 160.531,96.8061 166.031,96.8061 171.5,95.5C 173.026,95.9943 174.359,96.661 175.5,97.5 Z"/></g>
<g><path style="opacity:0.763" fill="#494949" d="M 23.5,97.5 C 23.8333,97.5 24.1667,97.5 24.5,97.5C 31.1667,97.5 37.8333,97.5 44.5,97.5C 47.1667,98.8333 47.1667,100.167 44.5,101.5C 37.8333,101.5 31.1667,101.5 24.5,101.5C 24.1667,101.5 23.8333,101.5 23.5,101.5C 23.5,100.167 23.5,98.8333 23.5,97.5 Z"/></g>
<g><path style="opacity:0.763" fill="#494949" d="M 154.5,97.5 C 161.5,97.5 168.5,97.5 175.5,97.5C 175.5,97.8333 175.5,98.1667 175.5,98.5C 147.5,99.1667 147.5,99.8333 175.5,100.5C 175.5,100.833 175.5,101.167 175.5,101.5C 175.167,101.5 174.833,101.5 174.5,101.5C 167.833,101.5 161.167,101.5 154.5,101.5C 153.833,101.5 153.5,101.167 153.5,100.5C 153.5,99.8333 153.5,99.1667 153.5,98.5C 153.5,97.8333 153.833,97.5 154.5,97.5 Z"/></g>
<g><path style="opacity:0.188" fill="#e0e0e0" d="M 23.5,97.5 C 23.5,98.8333 23.5,100.167 23.5,101.5C 20.8333,100.167 20.8333,98.8333 23.5,97.5 Z"/></g>
<g><path style="opacity:1" fill="#010101" d="M 24.5,98.5 C 31.1998,98.17 37.8665,98.5033 44.5,99.5C 41.1667,99.8333 37.8333,100.167 34.5,100.5C 30.7614,100.486 27.428,99.8197 24.5,98.5 Z"/></g>
<g><path style="opacity:0.086" fill="#ebebeb" d="M 153.5,98.5 C 153.5,99.1667 153.5,99.8333 153.5,100.5C 150.833,99.8333 150.833,99.1667 153.5,98.5 Z"/></g>
<g><path style="opacity:1" fill="#030303" d="M 175.5,98.5 C 175.5,99.1667 175.5,99.8333 175.5,100.5C 147.5,99.8333 147.5,99.1667 175.5,98.5 Z"/></g>
<g><path style="opacity:0.192" fill="#e0e0e0" d="M 175.5,97.5 C 178.167,98.8333 178.167,100.167 175.5,101.5C 175.5,101.167 175.5,100.833 175.5,100.5C 175.5,99.8333 175.5,99.1667 175.5,98.5C 175.5,98.1667 175.5,97.8333 175.5,97.5 Z"/></g>
<g><path style="opacity:0.059" fill="#eeeeee" d="M 24.5,101.5 C 31.1667,101.5 37.8333,101.5 44.5,101.5C 39.767,102.19 34.9336,102.856 30,103.5C 28.0517,102.891 26.2184,102.224 24.5,101.5 Z"/></g>
<g><path style="opacity:0.063" fill="#ededed" d="M 154.5,101.5 C 161.167,101.5 167.833,101.5 174.5,101.5C 172.782,102.224 170.948,102.891 169,103.5C 164.066,102.856 159.233,102.19 154.5,101.5 Z"/></g>
<g><path style="opacity:0.009" fill="#e4e4e4" d="M 56.5,102.5 C 57.2891,102.783 57.9558,103.283 58.5,104C 57.6198,105.356 57.2865,106.856 57.5,108.5C 56.596,107.791 56.2627,106.791 56.5,105.5C 56.5,104.5 56.5,103.5 56.5,102.5 Z"/></g>
<g><path style="opacity:0.015" fill="#d9d9d9" d="M 145.5,86.5 C 147.222,90.4274 148.222,94.7608 148.5,99.5C 147.865,103.367 147.199,107.2 146.5,111C 146.833,111.333 147.167,111.667 147.5,112C 146.027,112.71 145.36,113.876 145.5,115.5C 145.167,115.5 144.833,115.5 144.5,115.5C 146.499,106.2 146.832,96.8664 145.5,87.5C 145.5,87.1667 145.5,86.8333 145.5,86.5 Z"/></g>
<g><path style="opacity:0.545" fill="#b9b9b9" d="M 57.5,108.5 C 58.9238,110.515 59.5905,112.848 59.5,115.5C 57.8372,113.562 57.1706,111.228 57.5,108.5 Z"/></g>
<g><path style="opacity:0.533" fill="#bbbbbb" d="M 142.5,104.5 C 142.5,104.833 142.5,105.167 142.5,105.5C 142.68,109.286 141.68,112.619 139.5,115.5C 139.647,112.557 140.313,109.724 141.5,107C 139.853,104.442 140.187,103.608 142.5,104.5 Z"/></g>
<g><path style="opacity:0.018" fill="#f5f5f5" d="M 53.5,114.5 C 53.6495,115.552 53.4828,116.552 53,117.5C 52.2599,116.251 52.4265,115.251 53.5,114.5 Z"/></g>
<g><path style="opacity:0.012" fill="#f4f4f4" d="M 145.5,115.5 C 146.525,115.897 146.692,116.563 146,117.5C 145.536,116.906 145.369,116.239 145.5,115.5 Z"/></g>
<g><path style="opacity:0.09" fill="#e0e0e0" d="M 59.5,115.5 C 61.1042,116.287 61.7709,117.62 61.5,119.5C 60.3263,118.486 59.6596,117.153 59.5,115.5 Z"/></g>
<g><path style="opacity:0.094" fill="#d1d1d1" d="M 139.5,115.5 C 138.721,118.545 137.387,121.211 135.5,123.5C 135.896,120.279 137.229,117.612 139.5,115.5 Z"/></g>
<g><path style="opacity:0.031" fill="#eff0ef" d="M 53.5,118.5 C 54.8333,119.167 54.8333,119.167 53.5,118.5 Z"/></g>
<g><path style="opacity:0.098" fill="#bcbcbc" d="M 45.5,119.5 C 43.9192,121.086 41.9192,122.086 39.5,122.5C 38.6143,123.325 38.281,124.325 38.5,125.5C 39.8333,125.5 41.1667,125.5 42.5,125.5C 41.1536,127.127 39.6536,127.794 38,127.5C 35.5504,124.526 36.0504,122.359 39.5,121C 41.4357,120.187 43.4357,119.687 45.5,119.5 Z"/></g>
<g><path style="opacity:0.239" fill="#c0c0c0" d="M 55.5,117.5 C 57.0075,119.181 58.0075,121.181 58.5,123.5C 56.461,122.089 55.461,120.089 55.5,117.5 Z"/></g>
<g><path style="opacity:1" fill="#1d1d1d" d="M 45.5,119.5 C 46.8333,119.5 48.1667,119.5 49.5,119.5C 49.5,120.5 49.5,121.5 49.5,122.5C 48.5084,122.328 47.8417,122.662 47.5,123.5C 46.8333,123.5 46.5,123.833 46.5,124.5C 45.8333,124.5 45.1667,124.5 44.5,124.5C 43.5084,124.328 42.8417,124.662 42.5,125.5C 41.1667,125.5 39.8333,125.5 38.5,125.5C 38.281,124.325 38.6143,123.325 39.5,122.5C 41.9192,122.086 43.9192,121.086 45.5,119.5 Z"/></g>
<g><path style="opacity:0.137" fill="#d5d5d5" d="M 49.5,122.5 C 49.5,121.5 49.5,120.5 49.5,119.5C 48.1667,119.5 46.8333,119.5 45.5,119.5C 46.3697,117.401 47.703,117.068 49.5,118.5C 50.782,119.958 50.782,121.292 49.5,122.5 Z"/></g>
<g><path style="opacity:0.129" fill="#d5d5d5" d="M 153.5,119.5 C 152.167,119.5 150.833,119.5 149.5,119.5C 149.5,120.5 149.5,121.5 149.5,122.5C 148.114,120.243 148.781,118.576 151.5,117.5C 152.522,117.855 153.189,118.522 153.5,119.5 Z"/></g>
<g><path style="opacity:1" fill="#1b1b1b" d="M 153.5,119.5 C 155.426,121.293 157.759,122.293 160.5,122.5C 160.5,123.5 160.5,124.5 160.5,125.5C 159.167,125.5 157.833,125.5 156.5,125.5C 156.167,125.5 155.833,125.5 155.5,125.5C 155.5,124.833 155.167,124.5 154.5,124.5C 154.167,124.5 153.833,124.5 153.5,124.5C 152.486,123.326 151.153,122.66 149.5,122.5C 149.5,121.5 149.5,120.5 149.5,119.5C 150.833,119.5 152.167,119.5 153.5,119.5 Z"/></g>
<g><path style="opacity:0.192" fill="#cccccc" d="M 49.5,122.5 C 49.1667,123.5 48.5,124.167 47.5,124.5C 47.5,124.167 47.5,123.833 47.5,123.5C 47.8417,122.662 48.5084,122.328 49.5,122.5 Z"/></g>
<g><path style="opacity:0.165" fill="#cccccc" d="M 143.5,117.5 C 143.918,118.222 144.584,118.722 145.5,119C 143.503,120.193 141.836,121.693 140.5,123.5C 140.992,121.181 141.992,119.181 143.5,117.5 Z"/></g>
<g><path style="opacity:0.008" fill="#dedede" d="M 149.5,122.5 C 151.153,122.66 152.486,123.326 153.5,124.5C 151.678,125.429 150.345,124.762 149.5,122.5 Z"/></g>
<g><path style="opacity:0.055" fill="#cbcbcb" d="M 153.5,119.5 C 156.579,119.804 159.413,120.804 162,122.5C 162.52,124.289 162.187,125.956 161,127.5C 159.612,127.786 158.112,127.452 156.5,126.5C 156.5,126.167 156.5,125.833 156.5,125.5C 157.833,125.5 159.167,125.5 160.5,125.5C 160.5,124.5 160.5,123.5 160.5,122.5C 157.759,122.293 155.426,121.293 153.5,119.5 Z"/></g>
<g><path style="opacity:0.024" fill="#f5f6f5" d="M 46.5,124.5 C 46.8333,124.5 47.1667,124.5 47.5,124.5C 47.3147,125.17 46.9813,125.17 46.5,124.5 Z"/></g>
<g><path style="opacity:0.018" fill="#d0d0d0" d="M 58.5,123.5 C 59.9063,123.973 60.573,124.973 60.5,126.5C 59.603,125.402 58.7697,125.402 58,126.5C 57.5304,125.423 57.6971,124.423 58.5,123.5 Z"/></g>
<g><path style="opacity:0.035" fill="#e4e4e4" d="M 42.5,125.5 C 42.8417,124.662 43.5084,124.328 44.5,124.5C 45.5042,126.677 44.8375,127.011 42.5,125.5 Z"/></g>
<g><path style="opacity:0.006" fill="#cacaca" d="M 63.5,123.5 C 64.4584,123.953 65.2917,124.619 66,125.5C 66.3333,125.167 66.6667,124.833 67,124.5C 67.49,125.793 67.6567,127.127 67.5,128.5C 65.4131,127.415 64.0798,125.749 63.5,123.5 Z"/></g>
<g><path style="opacity:0.502" fill="#a3a3a3" d="M 135.5,123.5 C 135.262,125.404 134.262,126.738 132.5,127.5C 132.738,125.596 133.738,124.262 135.5,123.5 Z"/></g>
<g><path style="opacity:0.008" fill="#efefef" d="M 154.5,124.5 C 155.167,124.5 155.5,124.833 155.5,125.5C 155.5,125.833 155.5,126.167 155.5,126.5C 153.302,126.591 152.969,125.925 154.5,124.5 Z"/></g>
<g><path style="opacity:0.004" fill="#f8f9f8" d="M 155.5,126.5 C 155.833,126.5 156.167,126.5 156.5,126.5C 156.315,127.17 155.981,127.17 155.5,126.5 Z"/></g>
<g><path style="opacity:0.224" fill="#cccccc" d="M 60.5,126.5 C 62.7267,128.607 64.7267,130.94 66.5,133.5C 65.8333,133.5 65.5,133.833 65.5,134.5C 63.6214,134.607 63.2881,134.107 64.5,133C 62.103,130.974 60.7697,128.807 60.5,126.5 Z"/></g>
<g><path style="opacity:0.745" fill="#737373" d="M 132.5,127.5 C 131.925,129.411 130.925,131.078 129.5,132.5C 128.833,132.5 128.167,132.5 127.5,132.5C 128.833,130.5 130.5,128.833 132.5,127.5 Z"/></g>
<g><path style="opacity:0.016" fill="#d0d0d0" d="M 139.5,125.5 C 138.353,128.454 136.686,131.12 134.5,133.5C 133.833,133.5 133.5,133.833 133.5,134.5C 130.506,137 127.173,139 123.5,140.5C 126.167,138.167 128.833,135.833 131.5,133.5C 134.167,130.833 136.833,128.167 139.5,125.5 Z"/></g>
<g><path style="opacity:0.11" fill="#d3d3d3" d="M 75.5,135.5 C 73.7697,134.974 72.4363,133.974 71.5,132.5C 72.4232,131.697 73.4232,131.53 74.5,132C 74.1667,132.333 73.8333,132.667 73.5,133C 74.756,133.417 75.4226,134.25 75.5,135.5 Z"/></g>
<g><path style="opacity:0.016" fill="#e2e2e2" d="M 127.5,132.5 C 126.564,133.974 125.23,134.974 123.5,135.5C 122.398,133.908 123.065,133.075 125.5,133C 125.167,132.667 124.833,132.333 124.5,132C 125.577,131.53 126.577,131.697 127.5,132.5 Z"/></g>
<g><path style="opacity:0.016" fill="#f7f8f7" d="M 134.5,133.5 C 135.833,134.167 135.833,134.167 134.5,133.5 Z"/></g>
<g><path style="opacity:0.012" fill="#f8f9f8" d="M 65.5,134.5 C 65.8333,134.5 66.1667,134.5 66.5,134.5C 66.3147,135.17 65.9813,135.17 65.5,134.5 Z"/></g>
<g><path style="opacity:0.027" fill="#f5f6f5" d="M 133.5,134.5 C 133.833,134.5 134.167,134.5 134.5,134.5C 134.315,135.17 133.981,135.17 133.5,134.5 Z"/></g>
<g><path style="opacity:0.02" fill="#f4f5f4" d="M 58.5,136.5 C 57.8333,135.167 57.8333,135.167 58.5,136.5 Z"/></g>
<g><path style="opacity:0.024" fill="#c8c8c8" d="M 67.5,134.5 C 69.3885,135.604 71.0552,136.937 72.5,138.5C 69.796,138.33 68.1293,136.997 67.5,134.5 Z"/></g>
<g><path style="opacity:0.031" fill="#f0f1f0" d="M 62.5,136.5 C 63.8333,137.167 63.8333,137.167 62.5,136.5 Z"/></g>
<g><path style="opacity:0.004" fill="#dddddd" d="M 58.5,137.5 C 57.8333,138.833 56.8333,139.833 55.5,140.5C 55.5,139.5 55.5,138.5 55.5,137.5C 56.5,137.5 57.5,137.5 58.5,137.5 Z"/></g>
<g><path style="opacity:1" fill="#191919" d="M 67.5,128.5 C 69.1667,129.5 70.5,130.833 71.5,132.5C 72.4363,133.974 73.7697,134.974 75.5,135.5C 80.3517,139.568 86.0184,141.902 92.5,142.5C 96.1667,143.833 99.8333,143.833 103.5,142.5C 103.833,142.5 104.167,142.5 104.5,142.5C 106.099,142.768 107.432,142.434 108.5,141.5C 111.916,141.472 114.916,140.472 117.5,138.5C 119.967,138.245 121.967,137.245 123.5,135.5C 125.23,134.974 126.564,133.974 127.5,132.5C 128.167,132.5 128.833,132.5 129.5,132.5C 129.842,133.338 130.508,133.672 131.5,133.5C 128.833,135.833 126.167,138.167 123.5,140.5C 123.5,140.833 123.5,141.167 123.5,141.5C 122.833,141.5 122.167,141.5 121.5,141.5C 119.847,141.66 118.514,142.326 117.5,143.5C 106.224,146.968 94.8908,147.302 83.5,144.5C 82.4863,143.326 81.153,142.66 79.5,142.5C 78.1667,142.167 76.8333,141.833 75.5,141.5C 75.5,141.167 75.5,140.833 75.5,140.5C 75.0269,139.094 74.0269,138.427 72.5,138.5C 71.0552,136.937 69.3885,135.604 67.5,134.5C 67.1667,134.5 66.8333,134.5 66.5,134.5C 66.5,134.167 66.5,133.833 66.5,133.5C 67.4511,132.081 67.7845,130.415 67.5,128.5 Z"/></g>
<g><path style="opacity:0.035" fill="#cecece" d="M 123.5,135.5 C 121.967,137.245 119.967,138.245 117.5,138.5C 119.033,136.755 121.033,135.755 123.5,135.5 Z"/></g>
<g><path style="opacity:0.173" fill="#c9c9c9" d="M 75.5,135.5 C 82.7901,138.806 90.1234,141.14 97.5,142.5C 95.8333,142.5 94.1667,142.5 92.5,142.5C 86.0184,141.902 80.3517,139.568 75.5,135.5 Z"/></g>
<g><path style="opacity:0.035" fill="#dcdcdc" d="M 143.5,140.5 C 141.947,138.615 139.947,137.615 137.5,137.5C 137.389,136.883 137.056,136.383 136.5,136C 138.075,136.379 139.575,136.212 141,135.5C 142.438,136.9 143.271,138.567 143.5,140.5 Z"/></g>
<g><path style="opacity:0.02" fill="#dedede" d="M 55.5,140.5 C 55.1667,141.5 54.5,142.167 53.5,142.5C 51.8759,139.642 52.5426,138.975 55.5,140.5 Z"/></g>
<g><path style="opacity:0.443" fill="#9a9a9a" d="M 72.5,138.5 C 74.0269,138.427 75.0269,139.094 75.5,140.5C 73.9731,140.573 72.9731,139.906 72.5,138.5 Z"/></g>
<g><path style="opacity:0.129" fill="#d5d5d5" d="M 137.5,137.5 C 137.433,138.959 137.766,140.292 138.5,141.5C 134.88,140.897 134.547,139.564 137.5,137.5 Z"/></g>
<g><path style="opacity:0.067" fill="#d6d6d6" d="M 61.5,137.5 C 61.8333,137.5 62.1667,137.5 62.5,137.5C 64.1478,139.872 63.4811,141.206 60.5,141.5C 61.2341,140.292 61.5674,138.959 61.5,137.5 Z"/></g>
<g><path style="opacity:0.029" fill="#e4e4e4" d="M 103.5,141.5 C 104.999,140.506 106.666,140.506 108.5,141.5C 107.432,142.434 106.099,142.768 104.5,142.5C 104.5,141.833 104.167,141.5 103.5,141.5 Z"/></g>
<g><path style="opacity:0.078" fill="#e1e1e1" d="M 117.5,138.5 C 114.916,140.472 111.916,141.472 108.5,141.5C 111.215,139.928 114.215,138.928 117.5,138.5 Z"/></g>
<g><path style="opacity:0.047" fill="#dadada" d="M 145.5,142.5 C 144.5,142.167 143.833,141.5 143.5,140.5C 146.457,138.975 147.124,139.642 145.5,142.5 Z"/></g>
<g><path style="opacity:0.027" fill="#edeeed" d="M 51.5,142.5 C 50.8333,141.167 50.8333,141.167 51.5,142.5 Z"/></g>
<g><path style="opacity:0.012" fill="#f5f5f5" d="M 75.5,141.5 C 75.1034,142.525 74.4368,142.692 73.5,142C 74.0944,141.536 74.7611,141.369 75.5,141.5 Z"/></g>
<g><path style="opacity:0.016" fill="#f2f2f2" d="M 123.5,141.5 C 124.239,141.369 124.906,141.536 125.5,142C 124.563,142.692 123.897,142.525 123.5,141.5 Z"/></g>
<g><path style="opacity:0.02" fill="#ecedec" d="M 147.5,141.5 C 148.833,142.167 148.833,142.167 147.5,141.5 Z"/></g>
<g><path style="opacity:1" fill="#242424" d="M 58.5,136.5 C 59.791,136.263 60.791,136.596 61.5,137.5C 61.5674,138.959 61.2341,140.292 60.5,141.5C 59.1667,142.167 58.1667,143.167 57.5,144.5C 56.5,144.833 55.8333,145.5 55.5,146.5C 55.5,147.167 55.1667,147.5 54.5,147.5C 53.5,147.833 52.8333,148.5 52.5,149.5C 52.5,149.833 52.5,150.167 52.5,150.5C 52.1667,150.5 51.8333,150.5 51.5,150.5C 50.5,150.833 49.8333,151.5 49.5,152.5C 48.2921,153.234 46.9587,153.567 45.5,153.5C 45.5,152.5 45.5,151.5 45.5,150.5C 46.5,150.167 47.1667,149.5 47.5,148.5C 47.5,147.833 47.8333,147.5 48.5,147.5C 49.5,147.167 50.1667,146.5 50.5,145.5C 52.1436,145.19 53.1436,144.19 53.5,142.5C 54.5,142.167 55.1667,141.5 55.5,140.5C 56.8333,139.833 57.8333,138.833 58.5,137.5C 58.5,137.167 58.5,136.833 58.5,136.5 Z"/></g>
<g><path style="opacity:0.012" fill="#dddddd" d="M 60.5,141.5 C 60.6107,142.117 60.944,142.617 61.5,143C 60.5842,143.278 59.9175,143.778 59.5,144.5C 58.8333,144.5 58.1667,144.5 57.5,144.5C 58.1667,143.167 59.1667,142.167 60.5,141.5 Z"/></g>
<g><path style="opacity:0.475" fill="#818181" d="M 103.5,141.5 C 103.5,141.833 103.5,142.167 103.5,142.5C 99.8333,143.833 96.1667,143.833 92.5,142.5C 94.1667,142.5 95.8333,142.5 97.5,142.5C 99.5648,142.483 101.565,142.15 103.5,141.5 Z"/></g>
<g><path style="opacity:0.005" fill="#dadada" d="M 121.5,141.5 C 121.611,142.117 121.944,142.617 122.5,143C 120.866,143.494 119.199,143.66 117.5,143.5C 118.514,142.326 119.847,141.66 121.5,141.5 Z"/></g>
<g><path style="opacity:0.008" fill="#dfdfdf" d="M 138.5,141.5 C 139.5,141.833 140.167,142.5 140.5,143.5C 138.007,143.869 137.34,143.203 138.5,141.5 Z"/></g>
<g><path style="opacity:0.824" fill="#717171" d="M 145.5,142.5 C 146.833,143.167 147.833,144.167 148.5,145.5C 146.5,145.5 145.5,144.5 145.5,142.5 Z"/></g>
<g><path style="opacity:0.01" fill="#e3e3e3" d="M 50.5,145.5 C 50.1667,146.5 49.5,147.167 48.5,147.5C 46.8759,144.642 47.5426,143.975 50.5,145.5 Z"/></g>
<g><path style="opacity:0.8" fill="#838383" d="M 51.5,142.5 C 52.1667,142.5 52.8333,142.5 53.5,142.5C 53.1436,144.19 52.1436,145.19 50.5,145.5C 51.1098,144.609 51.4431,143.609 51.5,142.5 Z"/></g>
<g><path style="opacity:0.024" fill="#ebeceb" d="M 59.5,144.5 C 60.8333,145.167 60.8333,145.167 59.5,144.5 Z"/></g>
<g><path style="opacity:0.006" fill="#dbdbdb" d="M 79.5,142.5 C 81.153,142.66 82.4863,143.326 83.5,144.5C 82.4168,144.539 81.4168,144.873 80.5,145.5C 80.4827,144.606 80.1494,143.606 79.5,142.5 Z"/></g>
<g><path style="opacity:0.004" fill="#fafbfa" d="M 118.5,144.5 C 119.833,145.167 119.833,145.167 118.5,144.5 Z"/></g>
<g><path style="opacity:0.024" fill="#ebeceb" d="M 138.5,144.5 C 139.833,145.167 139.833,145.167 138.5,144.5 Z"/></g>
<g><path style="opacity:0.027" fill="#f3f4f3" d="M 83.5,145.5 C 82.8333,146.167 82.8333,146.167 83.5,145.5 Z"/></g>
<g><path style="opacity:0.004" fill="#f9faf9" d="M 150.5,145.5 C 151.833,146.167 151.833,146.167 150.5,145.5 Z"/></g>
<g><path style="opacity:0.012" fill="#e6e6e6" d="M 57.5,144.5 C 59.1241,147.358 58.4574,148.025 55.5,146.5C 55.8333,145.5 56.5,144.833 57.5,144.5 Z"/></g>
<g><path style="opacity:0.004" fill="#f4f5f4" d="M 84.5,146.5 C 85.8333,147.167 85.8333,147.167 84.5,146.5 Z"/></g>
<g><path style="opacity:0.255" fill="#dadada" d="M 117.5,143.5 C 117.144,145.19 116.144,146.19 114.5,146.5C 114.44,145.957 114.107,145.624 113.5,145.5C 112.065,147.401 110.398,147.734 108.5,146.5C 100.033,148.742 91.7,148.409 83.5,145.5C 83.5,145.167 83.5,144.833 83.5,144.5C 94.8908,147.302 106.224,146.968 117.5,143.5 Z"/></g>
<g><path style="opacity:0.004" fill="#f3f4f3" d="M 114.5,146.5 C 113.833,147.167 113.833,147.167 114.5,146.5 Z"/></g>
<g><path style="opacity:0.012" fill="#e8e8e8" d="M 141.5,144.5 C 142.5,144.833 143.167,145.5 143.5,146.5C 140.543,148.025 139.876,147.358 141.5,144.5 Z"/></g>
<g><path style="opacity:0.831" fill="#727272" d="M 148.5,145.5 C 149.167,145.833 149.833,146.167 150.5,146.5C 150.833,147.167 151.167,147.833 151.5,148.5C 149.5,148.5 148.5,147.5 148.5,145.5 Z"/></g>
<g><path style="opacity:1" fill="#181818" d="M 137.5,137.5 C 139.947,137.615 141.947,138.615 143.5,140.5C 143.833,141.5 144.5,142.167 145.5,142.5C 145.5,144.5 146.5,145.5 148.5,145.5C 148.5,147.5 149.5,148.5 151.5,148.5C 151.833,149.5 152.5,150.167 153.5,150.5C 153.5,151.5 153.5,152.5 153.5,153.5C 152.041,153.567 150.708,153.234 149.5,152.5C 149.043,150.227 147.71,148.894 145.5,148.5C 144.5,148.167 143.833,147.5 143.5,146.5C 143.167,145.5 142.5,144.833 141.5,144.5C 140.833,144.5 140.5,144.167 140.5,143.5C 140.167,142.5 139.5,141.833 138.5,141.5C 137.766,140.292 137.433,138.959 137.5,137.5 Z"/></g>
<g><path style="opacity:0.298" fill="#bfbfbf" d="M 47.5,148.5 C 47.1667,149.5 46.5,150.167 45.5,150.5C 45.5,149.167 46.1667,148.5 47.5,148.5 Z"/></g>
<g><path style="opacity:0.004" fill="#dfdfdf" d="M 54.5,147.5 C 54.7373,148.791 54.404,149.791 53.5,150.5C 53.5,149.833 53.1667,149.5 52.5,149.5C 52.8333,148.5 53.5,147.833 54.5,147.5 Z"/></g>
<g><path style="opacity:0.827" fill="#858585" d="M 145.5,149.5 C 145.5,149.167 145.5,148.833 145.5,148.5C 147.71,148.894 149.043,150.227 149.5,152.5C 148.833,152.5 148.167,152.5 147.5,152.5C 147.573,150.973 146.906,149.973 145.5,149.5 Z"/></g>
<g><path style="opacity:0.059" fill="#d9d9d9" d="M 153.5,150.5 C 152.5,150.167 151.833,149.5 151.5,148.5C 154.457,146.975 155.124,147.642 153.5,150.5 Z"/></g>
<g><path style="opacity:0.047" fill="#eff0ef" d="M 145.5,149.5 C 144.833,150.167 144.833,150.167 145.5,149.5 Z"/></g>
<g><path style="opacity:0.016" fill="#f7f8f7" d="M 52.5,150.5 C 52.8333,150.5 53.1667,150.5 53.5,150.5C 53.3147,151.17 52.9813,151.17 52.5,150.5 Z"/></g>
<g><path style="opacity:0.361" fill="#c9c9c9" d="M 79.5,149.5 C 82.1667,150.833 82.1667,152.167 79.5,153.5C 79.5,152.167 79.5,150.833 79.5,149.5 Z"/></g>
<g><path style="opacity:0.404" fill="#b8b8b8" d="M 45.5,150.5 C 45.5,151.5 45.5,152.5 45.5,153.5C 42.8333,152.5 42.8333,151.5 45.5,150.5 Z"/></g>
<g><path style="opacity:0.004" fill="#d3d3d3" d="M 51.5,150.5 C 51.5,151.167 51.5,151.833 51.5,152.5C 50.8333,152.5 50.1667,152.5 49.5,152.5C 49.8333,151.5 50.5,150.833 51.5,150.5 Z"/></g>
<g><path style="opacity:0.027" fill="#d9d9d9" d="M 76.5,149.5 C 76.3404,151.153 75.6737,152.486 74.5,153.5C 74.2291,151.62 74.8958,150.287 76.5,149.5 Z"/></g>
<g><path style="opacity:0.071" fill="#dcdcdc" d="M 119.5,149.5 C 119.5,150.833 119.5,152.167 119.5,153.5C 116.978,152.335 116.978,151.002 119.5,149.5 Z"/></g>
<g><path style="opacity:1" fill="#272727" d="M 122.5,149.5 C 122.66,151.153 123.326,152.486 124.5,153.5C 124.5,154.167 124.833,154.5 125.5,154.5C 125.5,155.167 125.5,155.833 125.5,156.5C 125.5,157.833 125.5,159.167 125.5,160.5C 124.5,160.5 123.5,160.5 122.5,160.5C 122.293,157.759 121.293,155.426 119.5,153.5C 119.5,152.167 119.5,150.833 119.5,149.5C 120.5,148.167 121.5,148.167 122.5,149.5 Z"/></g>
<g><path style="opacity:0.027" fill="#d8d8d8" d="M 122.5,149.5 C 124.104,150.287 124.771,151.62 124.5,153.5C 123.326,152.486 122.66,151.153 122.5,149.5 Z"/></g>
<g><path style="opacity:0.016" fill="#eff0ef" d="M 51.5,152.5 C 52.8333,153.167 52.8333,153.167 51.5,152.5 Z"/></g>
<g><path style="opacity:0.014" fill="#efefef" d="M 74.5,153.5 C 74.6716,154.492 74.3382,155.158 73.5,155.5C 71.9893,153.162 72.3227,152.496 74.5,153.5 Z"/></g>
<g><path style="opacity:0.004" fill="#f2f3f2" d="M 95.5,152.5 C 96.8333,153.167 96.8333,153.167 95.5,152.5 Z"/></g>
<g><path style="opacity:0.092" fill="#ebebeb" d="M 100.5,153.5 C 99.8333,153.5 99.1667,153.5 98.5,153.5C 99.1667,150.833 99.8333,150.833 100.5,153.5 Z"/></g>
<g><path style="opacity:0.004" fill="#f2f3f2" d="M 102.5,152.5 C 103.833,153.167 103.833,153.167 102.5,152.5 Z"/></g>
<g><path style="opacity:0.024" fill="#edeeed" d="M 147.5,152.5 C 146.833,153.167 146.833,153.167 147.5,152.5 Z"/></g>
<g><path style="opacity:0.039" fill="#d2d2d2" d="M 49.5,152.5 C 50.087,153.767 50.087,154.767 49.5,155.5C 47.9745,155.006 46.6412,154.339 45.5,153.5C 46.9587,153.567 48.2921,153.234 49.5,152.5 Z"/></g>
<g><path style="opacity:1" fill="#252525" d="M 79.5,149.5 C 79.5,150.833 79.5,152.167 79.5,153.5C 77.7073,155.426 76.7073,157.759 76.5,160.5C 75.5,160.5 74.5,160.5 73.5,160.5C 73.5,159.167 73.5,157.833 73.5,156.5C 73.5,156.167 73.5,155.833 73.5,155.5C 74.3382,155.158 74.6716,154.492 74.5,153.5C 75.6737,152.486 76.3404,151.153 76.5,149.5C 77.5,148.167 78.5,148.167 79.5,149.5 Z"/></g>
<g><path style="opacity:0.024" fill="#f3f4f3" d="M 125.5,153.5 C 126.833,154.167 126.833,154.167 125.5,153.5 Z"/></g>
<g><path style="opacity:0.392" fill="#cccccc" d="M 153.5,150.5 C 155.62,151.403 155.954,152.737 154.5,154.5C 152.738,154.357 151.071,154.691 149.5,155.5C 148.913,154.767 148.913,153.767 149.5,152.5C 150.708,153.234 152.041,153.567 153.5,153.5C 153.5,152.5 153.5,151.5 153.5,150.5 Z"/></g>
<g><path style="opacity:0.016" fill="#f6f7f6" d="M 43.5,154.5 C 44.8333,155.167 44.8333,155.167 43.5,154.5 Z"/></g>
<g><path style="opacity:0.016" fill="#f5f6f5" d="M 154.5,154.5 C 155.833,155.167 155.833,155.167 154.5,154.5 Z"/></g>
<g><path style="opacity:0.075" fill="#eeeeee" d="M 101.5,154.5 C 102.289,154.783 102.956,155.283 103.5,156C 102.353,160.057 102.353,164.391 103.5,169C 102.891,170.948 102.224,172.782 101.5,174.5C 101.5,167.833 101.5,161.167 101.5,154.5 Z"/></g>
<g><path style="opacity:0.733" fill="#4d4d4d" d="M 98.5,153.5 C 99.1667,153.5 99.8333,153.5 100.5,153.5C 101.167,153.5 101.5,153.833 101.5,154.5C 101.5,161.167 101.5,167.833 101.5,174.5C 101.5,174.833 101.5,175.167 101.5,175.5C 101.167,175.5 100.833,175.5 100.5,175.5C 99.8333,147.5 99.1667,147.5 98.5,175.5C 98.1667,175.5 97.8333,175.5 97.5,175.5C 97.5,175.167 97.5,174.833 97.5,174.5C 97.5,167.833 97.5,161.167 97.5,154.5C 97.5,153.833 97.8333,153.5 98.5,153.5 Z"/></g>
<g><path style="opacity:1" fill="#030303" d="M 100.5,175.5 C 99.8333,175.5 99.1667,175.5 98.5,175.5C 99.1667,147.5 99.8333,147.5 100.5,175.5 Z"/></g>
<g><path style="opacity:0.054" fill="#efefef" d="M 97.5,154.5 C 97.5,161.167 97.5,167.833 97.5,174.5C 96.776,172.782 96.1094,170.948 95.5,169C 96.6192,164.255 96.6192,159.755 95.5,155.5C 95.9569,154.702 96.6236,154.369 97.5,154.5 Z"/></g>
<g><path style="opacity:0.004" fill="#f6f7f6" d="M 120.5,159.5 C 119.833,160.167 119.833,160.167 120.5,159.5 Z"/></g>
<g><path style="opacity:0.024" fill="#c3c3c3" d="M 79.5,153.5 C 79.4182,157.266 77.9182,160.266 75,162.5C 73.9326,161.809 72.7659,161.309 71.5,161C 71.2063,159.346 71.873,157.846 73.5,156.5C 73.5,157.833 73.5,159.167 73.5,160.5C 74.5,160.5 75.5,160.5 76.5,160.5C 76.7073,157.759 77.7073,155.426 79.5,153.5 Z"/></g>
<g><path style="opacity:0.459" fill="#b7b7b7" d="M 119.5,153.5 C 121.293,155.426 122.293,157.759 122.5,160.5C 123.5,160.5 124.5,160.5 125.5,160.5C 125.5,159.167 125.5,157.833 125.5,156.5C 126.807,158.223 126.807,160.057 125.5,162C 123.045,162.706 121.378,161.873 120.5,159.5C 120.167,157.5 119.833,155.5 119.5,153.5 Z"/></g>
<g><path style="opacity:0.192" fill="#dfdfdf" d="M 97.5,175.5 C 97.8333,175.5 98.1667,175.5 98.5,175.5C 99.1667,175.5 99.8333,175.5 100.5,175.5C 100.833,175.5 101.167,175.5 101.5,175.5C 100.167,178.167 98.8333,178.167 97.5,175.5 Z"/></g>
</svg>
